<mxfile host="app.diagrams.net" modified="2020-11-24T09:24:27.195Z" agent="5.0 (Windows)" etag="QkBdvDxw-d8VmTfdjFAz" version="13.10.1" type="github">
  <diagram id="gSNmJSTXu_uP-vN6joz0" name="Page-1">
    <mxGraphModel dx="1038" dy="1647" grid="1" gridSize="10" guides="1" tooltips="1" connect="1" arrows="1" fold="1" page="1" pageScale="1" pageWidth="850" pageHeight="1100" math="0" shadow="0">
      <root>
        <mxCell id="0" />
        <mxCell id="1" parent="0" />
        <mxCell id="zOdN3YXhvsCyac9cw_Nz-28" value="" style="whiteSpace=wrap;html=1;shape=mxgraph.basic.cloud_rect" parent="1" vertex="1">
          <mxGeometry x="660" y="-240" width="350" height="340" as="geometry" />
        </mxCell>
        <mxCell id="zOdN3YXhvsCyac9cw_Nz-1" value="&lt;div&gt;Supermicro SA1SAi&lt;/div&gt;&lt;div&gt;(VMWare ESXi)&lt;br&gt;&lt;/div&gt;" style="image;html=1;image=img/lib/clip_art/networking/Print_Server_128x128.png" parent="1" vertex="1">
          <mxGeometry x="110" y="210" width="80" height="80" as="geometry" />
        </mxCell>
        <mxCell id="zOdN3YXhvsCyac9cw_Nz-2" value="Netgate GS308E 8-port" style="image;html=1;image=img/lib/clip_art/networking/Switch_128x128.png" parent="1" vertex="1">
          <mxGeometry x="520" y="40" width="80" height="80" as="geometry" />
        </mxCell>
        <mxCell id="zOdN3YXhvsCyac9cw_Nz-40" style="edgeStyle=orthogonalEdgeStyle;rounded=0;orthogonalLoop=1;jettySize=auto;html=1;exitX=0;exitY=0.5;exitDx=0;exitDy=0;entryX=0.992;entryY=0.457;entryDx=0;entryDy=0;entryPerimeter=0;" parent="1" source="zOdN3YXhvsCyac9cw_Nz-3" target="zOdN3YXhvsCyac9cw_Nz-39" edge="1">
          <mxGeometry relative="1" as="geometry" />
        </mxCell>
        <mxCell id="zOdN3YXhvsCyac9cw_Nz-3" value="TP-Link TL-WR841N/ND v7" style="image;html=1;image=img/lib/clip_art/networking/Wireless_Router_N_128x128.png" parent="1" vertex="1">
          <mxGeometry x="260" y="540" width="80" height="80" as="geometry" />
        </mxCell>
        <mxCell id="zOdN3YXhvsCyac9cw_Nz-10" style="edgeStyle=orthogonalEdgeStyle;rounded=0;orthogonalLoop=1;jettySize=auto;html=1;entryX=1;entryY=0.5;entryDx=0;entryDy=0;" parent="1" source="zOdN3YXhvsCyac9cw_Nz-6" target="zOdN3YXhvsCyac9cw_Nz-1" edge="1">
          <mxGeometry relative="1" as="geometry" />
        </mxCell>
        <mxCell id="zOdN3YXhvsCyac9cw_Nz-14" style="edgeStyle=orthogonalEdgeStyle;rounded=0;orthogonalLoop=1;jettySize=auto;html=1;exitX=0.5;exitY=0;exitDx=0;exitDy=0;exitPerimeter=0;entryX=0;entryY=0.5;entryDx=0;entryDy=0;" parent="1" source="zOdN3YXhvsCyac9cw_Nz-6" target="zOdN3YXhvsCyac9cw_Nz-2" edge="1">
          <mxGeometry relative="1" as="geometry" />
        </mxCell>
        <mxCell id="zOdN3YXhvsCyac9cw_Nz-30" style="edgeStyle=orthogonalEdgeStyle;rounded=0;orthogonalLoop=1;jettySize=auto;html=1;exitX=1;exitY=0.5;exitDx=0;exitDy=0;exitPerimeter=0;entryX=0;entryY=0.5;entryDx=0;entryDy=0;" parent="1" source="zOdN3YXhvsCyac9cw_Nz-6" target="zOdN3YXhvsCyac9cw_Nz-29" edge="1">
          <mxGeometry relative="1" as="geometry" />
        </mxCell>
        <mxCell id="zOdN3YXhvsCyac9cw_Nz-32" style="edgeStyle=orthogonalEdgeStyle;rounded=0;orthogonalLoop=1;jettySize=auto;html=1;entryX=1;entryY=0.5;entryDx=0;entryDy=0;" parent="1" source="zOdN3YXhvsCyac9cw_Nz-29" target="zOdN3YXhvsCyac9cw_Nz-3" edge="1">
          <mxGeometry relative="1" as="geometry">
            <mxPoint x="530" y="540" as="sourcePoint" />
            <Array as="points">
              <mxPoint x="590" y="510" />
              <mxPoint x="590" y="580" />
            </Array>
          </mxGeometry>
        </mxCell>
        <mxCell id="zOdN3YXhvsCyac9cw_Nz-37" style="edgeStyle=orthogonalEdgeStyle;rounded=0;orthogonalLoop=1;jettySize=auto;html=1;exitX=0.01;exitY=0.99;exitDx=0;exitDy=0;exitPerimeter=0;" parent="1" source="zOdN3YXhvsCyac9cw_Nz-6" target="zOdN3YXhvsCyac9cw_Nz-3" edge="1">
          <mxGeometry relative="1" as="geometry">
            <Array as="points">
              <mxPoint x="300" y="280" />
            </Array>
          </mxGeometry>
        </mxCell>
        <mxCell id="zOdN3YXhvsCyac9cw_Nz-38" value="ESXi Management" style="edgeLabel;html=1;align=center;verticalAlign=middle;resizable=0;points=[];" parent="zOdN3YXhvsCyac9cw_Nz-37" vertex="1" connectable="0">
          <mxGeometry x="-0.1627" y="-3" relative="1" as="geometry">
            <mxPoint y="1" as="offset" />
          </mxGeometry>
        </mxCell>
        <mxCell id="zOdN3YXhvsCyac9cw_Nz-6" value="pfSense 2.4.5" style="verticalLabelPosition=bottom;html=1;verticalAlign=top;align=center;strokeColor=none;fillColor=#00BEF2;shape=mxgraph.azure.virtual_machine;" parent="1" vertex="1">
          <mxGeometry x="375" y="240" width="50" height="40" as="geometry" />
        </mxCell>
        <mxCell id="zOdN3YXhvsCyac9cw_Nz-12" style="edgeStyle=orthogonalEdgeStyle;rounded=0;orthogonalLoop=1;jettySize=auto;html=1;exitX=0;exitY=0.5;exitDx=0;exitDy=0;exitPerimeter=0;entryX=0.25;entryY=0;entryDx=0;entryDy=0;" parent="1" source="zOdN3YXhvsCyac9cw_Nz-8" target="zOdN3YXhvsCyac9cw_Nz-1" edge="1">
          <mxGeometry relative="1" as="geometry">
            <mxPoint x="230" y="220" as="targetPoint" />
          </mxGeometry>
        </mxCell>
        <mxCell id="zOdN3YXhvsCyac9cw_Nz-8" value="Pi-hole" style="verticalLabelPosition=bottom;html=1;verticalAlign=top;align=center;strokeColor=none;fillColor=#00BEF2;shape=mxgraph.azure.virtual_machine;" parent="1" vertex="1">
          <mxGeometry x="290" y="50" width="50" height="40" as="geometry" />
        </mxCell>
        <mxCell id="zOdN3YXhvsCyac9cw_Nz-11" style="edgeStyle=orthogonalEdgeStyle;rounded=0;orthogonalLoop=1;jettySize=auto;html=1;exitX=0;exitY=0.5;exitDx=0;exitDy=0;exitPerimeter=0;entryX=0.75;entryY=0;entryDx=0;entryDy=0;" parent="1" source="zOdN3YXhvsCyac9cw_Nz-9" target="zOdN3YXhvsCyac9cw_Nz-1" edge="1">
          <mxGeometry relative="1" as="geometry" />
        </mxCell>
        <mxCell id="zOdN3YXhvsCyac9cw_Nz-9" value="Debian 10" style="verticalLabelPosition=bottom;html=1;verticalAlign=top;align=center;strokeColor=none;fillColor=#00BEF2;shape=mxgraph.azure.virtual_machine;" parent="1" vertex="1">
          <mxGeometry x="290" y="120" width="50" height="40" as="geometry" />
        </mxCell>
        <mxCell id="zOdN3YXhvsCyac9cw_Nz-22" style="edgeStyle=orthogonalEdgeStyle;rounded=0;orthogonalLoop=1;jettySize=auto;html=1;exitX=0;exitY=0.5;exitDx=0;exitDy=0;entryX=0.25;entryY=0;entryDx=0;entryDy=0;" parent="1" source="zOdN3YXhvsCyac9cw_Nz-15" target="zOdN3YXhvsCyac9cw_Nz-2" edge="1">
          <mxGeometry relative="1" as="geometry" />
        </mxCell>
        <mxCell id="zOdN3YXhvsCyac9cw_Nz-15" value="&lt;div&gt;Raspberry Pi 4 4GB&lt;/div&gt;&lt;div&gt;(Ubuntu 20.04)&lt;br&gt;&lt;/div&gt;" style="shape=image;html=1;verticalAlign=top;verticalLabelPosition=bottom;labelBackgroundColor=#ffffff;imageAspect=0;aspect=fixed;image=https://cdn4.iconfinder.com/data/icons/logos-and-brands/512/272_Raspberry_Pi_logo-128.png" parent="1" vertex="1">
          <mxGeometry x="735" y="-220" width="60" height="60" as="geometry" />
        </mxCell>
        <mxCell id="zOdN3YXhvsCyac9cw_Nz-24" style="edgeStyle=orthogonalEdgeStyle;rounded=0;orthogonalLoop=1;jettySize=auto;html=1;exitX=0;exitY=0.5;exitDx=0;exitDy=0;entryX=0.75;entryY=0;entryDx=0;entryDy=0;" parent="1" source="zOdN3YXhvsCyac9cw_Nz-16" target="zOdN3YXhvsCyac9cw_Nz-2" edge="1">
          <mxGeometry relative="1" as="geometry" />
        </mxCell>
        <mxCell id="zOdN3YXhvsCyac9cw_Nz-16" value="&lt;div&gt;Raspberry Pi 4 4GB&lt;/div&gt;&lt;div&gt;(Ubuntu 20.04)&lt;br&gt;&lt;/div&gt;" style="shape=image;html=1;verticalAlign=top;verticalLabelPosition=bottom;labelBackgroundColor=#ffffff;imageAspect=0;aspect=fixed;image=https://cdn4.iconfinder.com/data/icons/logos-and-brands/512/272_Raspberry_Pi_logo-128.png" parent="1" vertex="1">
          <mxGeometry x="735" y="-20" width="60" height="60" as="geometry" />
        </mxCell>
        <mxCell id="zOdN3YXhvsCyac9cw_Nz-23" style="edgeStyle=orthogonalEdgeStyle;rounded=0;orthogonalLoop=1;jettySize=auto;html=1;exitX=0;exitY=0.5;exitDx=0;exitDy=0;entryX=0.5;entryY=0;entryDx=0;entryDy=0;" parent="1" source="zOdN3YXhvsCyac9cw_Nz-17" target="zOdN3YXhvsCyac9cw_Nz-2" edge="1">
          <mxGeometry relative="1" as="geometry" />
        </mxCell>
        <mxCell id="zOdN3YXhvsCyac9cw_Nz-17" value="&lt;div&gt;Raspberry Pi 4 4GB&lt;/div&gt;&lt;div&gt;(Ubuntu 20.04)&lt;br&gt;&lt;/div&gt;" style="shape=image;html=1;verticalAlign=top;verticalLabelPosition=bottom;labelBackgroundColor=#ffffff;imageAspect=0;aspect=fixed;image=https://cdn4.iconfinder.com/data/icons/logos-and-brands/512/272_Raspberry_Pi_logo-128.png" parent="1" vertex="1">
          <mxGeometry x="735" y="-120" width="60" height="60" as="geometry" />
        </mxCell>
        <mxCell id="zOdN3YXhvsCyac9cw_Nz-25" style="edgeStyle=orthogonalEdgeStyle;rounded=0;orthogonalLoop=1;jettySize=auto;html=1;exitX=1;exitY=0.5;exitDx=0;exitDy=0;entryX=0;entryY=0;entryDx=0;entryDy=0;" parent="1" source="zOdN3YXhvsCyac9cw_Nz-18" target="zOdN3YXhvsCyac9cw_Nz-2" edge="1">
          <mxGeometry relative="1" as="geometry" />
        </mxCell>
        <mxCell id="zOdN3YXhvsCyac9cw_Nz-18" value="&lt;div&gt;Raspberry Pi 4 8GB&lt;/div&gt;&lt;div&gt;(VMWare ESXi for ARM)&lt;br&gt;&lt;/div&gt;" style="shape=image;html=1;verticalAlign=top;verticalLabelPosition=bottom;labelBackgroundColor=#ffffff;imageAspect=0;aspect=fixed;image=https://cdn4.iconfinder.com/data/icons/logos-and-brands/512/272_Raspberry_Pi_logo-128.png" parent="1" vertex="1">
          <mxGeometry x="365" y="-120" width="60" height="60" as="geometry" />
        </mxCell>
        <mxCell id="zOdN3YXhvsCyac9cw_Nz-27" style="edgeStyle=orthogonalEdgeStyle;rounded=0;orthogonalLoop=1;jettySize=auto;html=1;exitX=0;exitY=0.5;exitDx=0;exitDy=0;entryX=1;entryY=0.75;entryDx=0;entryDy=0;" parent="1" source="zOdN3YXhvsCyac9cw_Nz-19" target="zOdN3YXhvsCyac9cw_Nz-2" edge="1">
          <mxGeometry relative="1" as="geometry" />
        </mxCell>
        <mxCell id="zOdN3YXhvsCyac9cw_Nz-19" value="&lt;div&gt;Raspberry Pi 2&lt;/div&gt;&lt;div&gt;(FreeBSD)&lt;br&gt;&lt;/div&gt;" style="shape=image;html=1;verticalAlign=top;verticalLabelPosition=bottom;labelBackgroundColor=#ffffff;imageAspect=0;aspect=fixed;image=https://cdn4.iconfinder.com/data/icons/logos-and-brands/512/272_Raspberry_Pi_logo-128.png" parent="1" vertex="1">
          <mxGeometry x="690" y="250" width="60" height="60" as="geometry" />
        </mxCell>
        <mxCell id="zOdN3YXhvsCyac9cw_Nz-26" style="edgeStyle=orthogonalEdgeStyle;rounded=0;orthogonalLoop=1;jettySize=auto;html=1;exitX=0;exitY=0.25;exitDx=0;exitDy=0;entryX=1;entryY=0.5;entryDx=0;entryDy=0;" parent="1" source="zOdN3YXhvsCyac9cw_Nz-20" target="zOdN3YXhvsCyac9cw_Nz-2" edge="1">
          <mxGeometry relative="1" as="geometry">
            <Array as="points">
              <mxPoint x="650" y="155" />
              <mxPoint x="650" y="80" />
            </Array>
          </mxGeometry>
        </mxCell>
        <mxCell id="zOdN3YXhvsCyac9cw_Nz-20" value="&lt;div&gt;Raspberry Pi 2&lt;/div&gt;&lt;div&gt;(NetBSD)&lt;br&gt;&lt;/div&gt;" style="shape=image;html=1;verticalAlign=top;verticalLabelPosition=bottom;labelBackgroundColor=#ffffff;imageAspect=0;aspect=fixed;image=https://cdn4.iconfinder.com/data/icons/logos-and-brands/512/272_Raspberry_Pi_logo-128.png" parent="1" vertex="1">
          <mxGeometry x="690" y="140" width="60" height="60" as="geometry" />
        </mxCell>
        <mxCell id="zOdN3YXhvsCyac9cw_Nz-35" style="edgeStyle=orthogonalEdgeStyle;rounded=0;orthogonalLoop=1;jettySize=auto;html=1;entryX=0;entryY=0.5;entryDx=0;entryDy=0;exitX=0.75;exitY=0;exitDx=0;exitDy=0;" parent="1" source="zOdN3YXhvsCyac9cw_Nz-29" target="zOdN3YXhvsCyac9cw_Nz-33" edge="1">
          <mxGeometry relative="1" as="geometry" />
        </mxCell>
        <mxCell id="zOdN3YXhvsCyac9cw_Nz-36" style="edgeStyle=orthogonalEdgeStyle;rounded=0;orthogonalLoop=1;jettySize=auto;html=1;exitX=1;exitY=0.5;exitDx=0;exitDy=0;" parent="1" source="zOdN3YXhvsCyac9cw_Nz-29" target="zOdN3YXhvsCyac9cw_Nz-34" edge="1">
          <mxGeometry relative="1" as="geometry" />
        </mxCell>
        <mxCell id="zOdN3YXhvsCyac9cw_Nz-29" value="Zyxel Gbit 5-port switch" style="image;html=1;image=img/lib/clip_art/networking/Switch_128x128.png" parent="1" vertex="1">
          <mxGeometry x="470" y="450" width="80" height="80" as="geometry" />
        </mxCell>
        <mxCell id="zOdN3YXhvsCyac9cw_Nz-33" value="Proxmox VE" style="image;html=1;image=img/lib/clip_art/computers/Server_Tower_128x128.png" parent="1" vertex="1">
          <mxGeometry x="750" y="360" width="80" height="80" as="geometry" />
        </mxCell>
        <mxCell id="zOdN3YXhvsCyac9cw_Nz-34" value="Dell OptiPlex 3050 Micro" style="verticalLabelPosition=bottom;aspect=fixed;html=1;verticalAlign=top;strokeColor=none;align=center;outlineConnect=0;shape=mxgraph.citrix.thin_client;" parent="1" vertex="1">
          <mxGeometry x="754.5" y="564.5" width="71" height="71" as="geometry" />
        </mxCell>
        <mxCell id="zOdN3YXhvsCyac9cw_Nz-39" value="&lt;div&gt;Lab WiFi network&lt;/div&gt;&lt;div&gt;extension&lt;br&gt;&lt;/div&gt;" style="html=1;verticalLabelPosition=bottom;align=center;labelBackgroundColor=#ffffff;verticalAlign=top;strokeWidth=2;strokeColor=#0080F0;shadow=0;dashed=0;shape=mxgraph.ios7.icons.wifi;pointerEvents=1" parent="1" vertex="1">
          <mxGeometry x="130" y="499" width="60" height="51" as="geometry" />
        </mxCell>
        <mxCell id="zOdN3YXhvsCyac9cw_Nz-43" style="edgeStyle=orthogonalEdgeStyle;rounded=0;orthogonalLoop=1;jettySize=auto;html=1;exitX=1;exitY=0.5;exitDx=0;exitDy=0;" parent="1" source="zOdN3YXhvsCyac9cw_Nz-41" target="zOdN3YXhvsCyac9cw_Nz-42" edge="1">
          <mxGeometry relative="1" as="geometry" />
        </mxCell>
        <mxCell id="zOdN3YXhvsCyac9cw_Nz-41" value="Internet" style="aspect=fixed;perimeter=ellipsePerimeter;html=1;align=center;shadow=0;dashed=0;spacingTop=3;image;image=img/lib/active_directory/internet_globe.svg;" parent="1" vertex="1">
          <mxGeometry x="20" y="-200" width="100" height="100" as="geometry" />
        </mxCell>
        <mxCell id="zOdN3YXhvsCyac9cw_Nz-44" style="edgeStyle=orthogonalEdgeStyle;rounded=0;orthogonalLoop=1;jettySize=auto;html=1;entryX=0;entryY=0.5;entryDx=0;entryDy=0;" parent="1" source="zOdN3YXhvsCyac9cw_Nz-42" target="zOdN3YXhvsCyac9cw_Nz-1" edge="1">
          <mxGeometry relative="1" as="geometry">
            <Array as="points">
              <mxPoint x="90" y="-55" />
              <mxPoint x="90" y="250" />
            </Array>
          </mxGeometry>
        </mxCell>
        <mxCell id="zOdN3YXhvsCyac9cw_Nz-42" value="ISP Router" style="outlineConnect=0;fontColor=#232F3E;gradientColor=none;strokeColor=#232F3E;fillColor=#ffffff;dashed=0;verticalLabelPosition=bottom;verticalAlign=top;align=center;html=1;fontSize=12;fontStyle=0;aspect=fixed;shape=mxgraph.aws4.resourceIcon;resIcon=mxgraph.aws4.router;" parent="1" vertex="1">
          <mxGeometry x="150" y="-70" width="30" height="30" as="geometry" />
        </mxCell>
        <mxCell id="GqbqaHvvmFiSS08LwbgQ-1" value="" style="shape=image;verticalLabelPosition=bottom;labelBackgroundColor=#ffffff;verticalAlign=top;aspect=fixed;imageAspect=0;image=data:image/png,iVBORw0KGgoAAAANSUhEUgAAAMgAAABUCAYAAADH/HimAAAABGdBTUEAALGPC/xhBQAAACBjSFJNAAB6JQAAgIMAAPn/AACA6QAAdTAAAOpgAAA6mAAAF2+SX8VGAAAACXBIWXMAABJ0AAASdAHeZh94AAAABmJLR0QA/wD/AP+gvaeTAAAAB3RJTUUH5AEeCi0Ri6oF4wAAACV0RVh0ZGF0ZTpjcmVhdGUAMjAyMC0wMS0zMFQxMDo0NToxNyswMDowMEoW2o4AAAAldEVYdGRhdGU6bW9kaWZ5ADIwMjAtMDEtMzBUMTA6NDU6MTcrMDA6MDA7S2IyAAAXh0lEQVR4Xu2dB3hUVd7GXxJIIEASAgnSQ+i9gyhFUKoF7OIKiou9YF/d9VN0V7Bg2ZX91rafwmdbP0RFEAUVRIr0XkInhBASenr//u+5dyQJc+9MMpMwN5zf8+TJ3DvJzJ2Z855/PWeqFQnQaDRuCTJ/azQaN7i3IEX5QP5JIG0dkLkNyE0BCtLlvDY2HqlWDQiOAEIuAur2AMI6ATUi5Q49FzmRcwWSkwgcnwekfim3DwGF2SKMAvNOjddUCxZNhIlA2gDRNwNRw0UoDcw7NU6hpEDSNwKHpgOnl2lR+JOgUBHIKKDpZKBWa/OkxgmcFUjaamD/c0DGdjnQrpT/ERcrvB8QN01E0so8pwl0DMeYrtSh10UcEm9ocVQQhcCZ34DEvwN5x81zmkAnSLlSqbPlwxMLoqlgZPI58QNwcpF5rAl0gpC5Q4Ly+fLZ5ZunNBVKYSaQ8oW2Ig4hSAXmWXvNQ02lwEkpa495oAlkgpC2XluPyoap8/QN5oEmkAlC7hHzplNgIa42ENYOqNsTCG0mp2qY9zkExn25ybxhHGsCliDknzJvOoBq1YF6VwBt3wU6fAK0+zfQ6T9A3FSgdkfzj5yACCP/tHlbE8gEqfSjU6h/tYjhZSByMBDS0KhM04LE3AK0dJpIHPS+X8A4p0GoZhzQ+C4RRox5ohR1ewENJ8grCjNPaDS+4xyBhPcBarUxDyyI6C9CamEeaDS+4xyBsDs2qKZ5YEENsS7V2Tmr0fgH5wjEm0wVg3h20Wo0fsI5AmF61yNMm+rUqcZ/OMiCeCsQjcZ/OMiCeIHShxaJxn9ULYFQHHpZsMaPVMEYRFPRcI1d8YWogQavLSMzEwmJidixaxc2b9uG9Zs3YeOWLer48JEjyMrK8uo1VCvaNFwejasIA5zmTwNNHjAPLODGEjvvBM6sNE8EMNHXAa3fkhveCN+eYydOYOHin3FcfldzE6sVFhaiQ9u2GHbZEPOMNekZGZi/aCFSjx0zz5xLUFAQ+vfpgx5duqrj1OPH5PkX4+Qp/7Yt9enRA3169kKQF/Fnfn4+UuSaXWI4mHgI6enpyMnNQ0FBgbwHBeq9qV69OmqG1kTdunXQsnkLdOvUGd06d0L9qPqoIfeVxkECeUYEcr95YIESyERj5V6g40eB7D2wH89Nm4p9Bw+6FQhnyhFDh2LKUzLJ2JCTk4PP5nyJmZ9/JgMr1zx7Lr2798DTkx9B44suUsfxe/bg+Vem4eChQ26fv7xMHHcr/njbeCVIOxKTktQEsXDJYiSJdcgXQXhlHUzBNGnUCEMHDsKIIUPQvGkz814DB2WxzN+2XJguFseCazxwYJT+Mc6rX5bw7xYvX4Yvvvka2SKU0o/h+olrEYu7b7/9d3EQ133Fb/vrx45CuX/NhvX46+uv4X8+/UQJNE8siaf/c8G/y8vLw4GEBHwk//+3N17HyjVrlMV1UcViEOLdm6MpyYYtm/HB/86ydZNiGjTAvXdMROf2Hcwz5w8O7hWrVuG1GW8rt4pulC9QbFu2b5fH+weWrlxhnq1qAvFy5tCUZH/CQbw3c6YKXq2oHRaGW2+4UcUegQCtxfsi6EOHD5tn/MORo0fx748/Vm4rcYhAKA5vLAgFokVSFhjYvz9rFjZv54427gkODsa1V16Fa0aMVLfdUolvO63F19/Nx+599kvFGdxH1auH5k2aokWzZsotpNA9sWf/PsxdsEC5X1XMxdLiKAtZ2dkqKP9lxXJbv33ogIH4g1iPWrVqmWdKUqtmTbRq2RLt27RBh7btPP50bNdODVZPAb3V/Uzfrly7xvaa60VG4uZrr8PzTz6FV56fglenvIC//flZPPHgQ7js0gEIDQk1/9I9azduMJIezshiyRsV+19Ao7vMYwu4OpJp3rQ15okAxo9ZrD37jSwWXSUrhg8Zihf+dDaLxbToV/Pn4d2ZH6magRW9unXDkw8+rGZgKzjTnjx9Sh7TPg5wDfg9MvN/IG7Mrr3WG1c0bdwYj91/P/r37mueOcu8hT9g+owZyMnNMc+UpEaNGrhj3K247cabECK3S3P6zGllNfn6GXu4gynfvzz2hJNcLG+sg7Yg3rJs1W+Y9Z/PbcUR16IF7pt4p604CAdkTINoZRXsfi6KiUFi0mHMlOe1c4+YBHh68qPo18t9vMNUrpU4SJRYj0H9+7sVB4kIj8CNY8aikVyTFcyGMR7RLtYFyPb4eBWIssBoRf16UbjztvHo5KeMFa3M9z//pLJO23budOseMb6h+/PUw5OV5XJXIOTATUtPN4/cw7qJJxcqukEDcQnbmkfuycrOcohA1BvljUA0VgSbxTZmqt756EMViFrBQPaOceMwuP8l5hnfOJOWpqzVW+/8yzLrxPjmhquvweMPPIg2cXHm2XOhsAqK1SnckZaRYfv6CAuEDODt4PtQtSyImpW0FXFHaGiImn0/mzMb6yQAtYKz+JhRo3HlsOFqEPlKckqKEiTdKgrFHRyorJqzANkgKso86x7GBmEWyQIXbDH5av58lQq2gqOJliYkJEQ9Hi0mXcruXbpg8CWX4pqRo1QrjTOCdK4SbPGcBOkSgNuRdwyIl0A+ba15IoCp5CD91uuuR+tWrfD6P2dYxh10aYYOGoRH773f4+zqDfF7dqskwJoNG1RSwB2xzZvjrvETMPDi/iqW8Yb/++ZrvPXuOyUq3qXha+nQrh1uufZ69OjaReKSeiWyYkwV7ztwAGdETPUiIpQFo/g4Kbh+GMM4J0h344+eC/9GW5DS8IM/fuokvvx2rm1Q3rVTJ0y6bYLP4uDAXb56Faa++aZq3bASBxsoH5p0Fwb0uxjBco3e0kaEHl2/vnnkHmanGOtMfesNvPjaq/j0y9mqZ4yxEKGl5OMw1omLjUWjhg3RQB4zUsRSp3Zt1AwNVRYmeMp9raYgL1X9U8BCcUQMMnZStIPNisfnwhG7RdaW4DdqpNzwRvj2nDh1CouX/YpTpy02o5PBwowM3R2r2gFn18vFerDj11N9wg7WVr5btBD//OB9JBxONM+6h0Ji+/mPvyxRhcrMrCwZnHWUy2N3DcxCMdFw4FCCecYaipNx1/rNm0Wsq7Fp21bV6h4iQTxF4K6DtzjOEAitQp3u8s54CBpzJAA89pW4Wg7YOb0SBUJJcOa0K6wRWpeunTqLP14+C8ImR7o/782aiVNnzphnraGYjp88gaOpKdi1d6/qrWKrOl2tZo2bWLpcHNQR4XVVoyJF5Q0UI1v5GZesWL0ay1f9phIGhQWFynIwFnGHQwQiBElgFjlQrtimVeD0UhHI1zIirFu1A4bKtCBewv9nMN9TglPLlhIbKL/t8TuxQWZrK7fKDg5ipp7Xb9oks3w22rVpo2Z5d8RERyvLuFXcqLI+FycKioUu15qNG9RvdgPwMUsnJpwjEG72zL2xaneRMeUmdMo+ABx6U37bp/cChgAUCElKTkaXjh2VT15WmEqmX09rtXP37nM6bOk2eeO+Gf+/S/1tt85dfk9RF0c9V1wrFUizIm+3fsUOroGhK7hi7RrVycy+rfC6dc17nSQQfkUDv5Kae1/VbC4WhSax0LAWGVuBhFcNC+IUAlQgdHtyZbBd3Lu311ml4tD9YU9WWloadu/bpywRV+2NGTUKVw0fqQqBbVu3FtcoEydOnrR0+2hN6AK1FcGx7cQdvD4G+lzwlJySihNifeydSGv4minq/QcPonVc3O9upnMEQgoyjNWCp38Vsew0vjYu5XPgyHuGSJyUwQpQgRAuoW3WtAlaxbY0z5SNUPHn2ZRI12f4kCFqVWC/Xr1UAbB1y5ZiFTqjT4+eyp06mJBg+alRrMxGKbFaBNMUYMsWsejdvbuKI9gTRvfJU7zlDv5PUvIRtUKRqWEmDJwlEKK+W+MokL7JqHfwm5qYvXKSOMh5EghnXbolXJZqBWfTtPQM9O3Zy2NRzgr69D26dkOn9u1VjaG4a8XbdGOaNGqMdRKUn7YJ6HPzclXBzi6t63o8pmy7i/hY9GPCgYVJWqKykpxyVN6jEFU0dJ5AqgrnQSAcSMMGX4bLBgzAtvh42+CWmzawX4mt6cUHd1ng7G73v6y37JIA2a5xkQO9V7fuqlbhCdYtGkTVF5F0wSV9+qpYipNBXn6eijXsJoXi0JIwHuncoYOTWk00vkLXhu7O2NFXoot8+HawLYWLhvy9Yq84rHazkm7X0sJAn2ngskChNIyJUfHOXx57HNNf+Csm33MPhgwYiIjwcPOv7GHXMWsmWiAXCMzO3D3hdhXwcpBwhaAn94mtK9wCqDwpW2+pW6eORwuVKVbEnavEc3QHaWVoPVlTYS2mOLRifM1jR1+FPz/yKF58+hkMuuQSjwkIxj4M2rWLdb6oZBerb8+eGHfd9b8PRhbHDh9Jwt79xtprd9DVSDmWio4SR3Athx0UEd2S5KNH1Uq8Hbvi5XaKWgfCGd2KbfE7sWrdWttYgS6WahyUaz+amopff1upCoorV6/GLytXYNGSJVjw4yL8vPRXeb5GKqvlDgbxjHv6dO+h4p7de/fYRq5sOQlQC+L7oNGUpJoM0uIzNT/80VcMV0Kxgy0q337//TkzswsObjZAPjv1JTw77SU89/I0THn1Zbw4/TW1V5XVij0Xx44fR4EHC0WL5xIZhTH1zTdU6/yHn32KOfO+xc+/LsW6TcZmcQUFnq0d+61uHDMGUR46h2mdAkcg7Nit1UqmtmuAxvcADf9g9F6xgl4e+EU6EZcCMeOMx2Kbiv5ynRL07NpV+emeXBzO0qvXrTOPSrLgpx8x+9u5al07t/bkbiAc9BxcVu0bLig6WjA7EbGSznjCRUZGBgotgm32WHm7uyO7e7mNkR1htQJiPYh8OPwyzovuANq8DbT+O9DiL8aXdbb5F9B0sgzsMvYGhbUHYl8A2r4DtHrVeCzejpsmQhlgFhk1DI6vHjHCY9Wc6yvmfr9AFfaKQxfMao0H4eYKzB5ZsXXHdtUSb0fTxk1KuEzcNtQK1k3WbNzoVX9Wbl6evK4M88g9jRuJe2jePj8E1xEpjxAhzDC2FlVtJMUyGqGNjY0amtzn/aAOkf+JfR6IvrakxaDI6l9pCvA5Q0TFn+sChcXAUVcMs40TyFoZeLQSxaHlqVvnbFtGaZi+pZvlajEvDrNjn8+Zo/bTtaNzh/YqweCiYUy0bWv8kuXLMHvuN7bCpeViB/GRlKPmmXPh5NGpXfvzFKTTnaL71OQhmSIeFNeqtfVg5d+GNgHS1ovsk8yTNtCd4tdCu/0qNrFWwbXFAe9muFz8zsOcQ0aFvrKp5CCd2/IMGSDWsxSu2sGW7dts16gz3XrsxHFVAS/eq8TKM/1/d5VrpopZ5+ASWFbCOWunSJC9ev06fPT5Z+q3HayTTBo/QQXWZynC2g0b5TWXtGYumCygZWLLCNeus0eLbS3MdDHA37ZzB76aN0/tq2VnaVrFxuKGa8ZWtkBklqrZTKzCRKDZkzJI+8sp+8X1iiAZ1Fm7xNaLSOyglWl8vxHL2EK3TgK08L7G10cXyhuVJ7NJobU74HcCRCCEQXBeXj7Wbtpom02if8+0LAtxrriF67a5QwpjA3dwEG6VQfnb2rVYsmKZyjgxqGZAbQeFy1T06GHDSzQrMjXNVhi7je5YEGRbO60e14D8snw5fly6RJ57sbIcG7dusXX9aD1YKxo6cGAlulh0cWJuMuKKJhJXhNJsejk42L1Ld8wTtAi0EN5CcYb3E7druoygV+T2xfJcZW/QqwpcMXiwxz13KZ4FP/2kFjm5aNG0GcaOGm0bkNP6cFBz0DK17ClGoPgu7dsPN40de04PFgcv18t7s9sKtwaiC8duXW5QzR4rO9fLBXevHzNylBJpxQuEgzBioAzA1yQ2mCLuTVd5B8q41qAwV2Z4L6xcQaZMH+X4joqgMJnNRxtrxJv/Saxcy7Jfo8PhToScNT0VDznAWTxkQEw4YLnJw4ghQ9VtX+Gg7NerNx744yS115Y7mjdtqtaxe9qvq6xQmOw8vuf2O35Pf1egiyXaq91ZrMW94k49ZgTg5c0eZe0WZ/ddGfzWPrKBuAdcUBU5WF5tWT8ssWbVw0XAPYxMF6+fS3crKj4JIBfLBQcFXZ/9MtvawbiDe0o1ayKxocDGxC6dOqKosEjN1lY1E08wtrlqxEjcN3GiZYu7CxYg2QrPzFpyaoqta+gNdBXpUj0waVKJbYcqRiAhMRIs3ypSlzij3lBjhi4v+fKhJ/7DaHH3hpxEI86p1UbGXjkMJP+HaefIS8XhlUFcKFYpR4RSdG4mxif8KBC2eC8RgZwUgXAWLP1DWse1VDUPO1hz4EBZvX49ssVCuHss/tB/pwXhTu8u14rpV276wOA2OztHbYpN18pd8F4c9mPVlriG1e1J48crd43WzBO8Dlb3e3brioZiadIzM9QaFNZI7J/xLLRWFHcvee7xN92s9vJtGF2yY8C/2/4wToi8zKhpMEvliz/PtvaMLcCRD4Dj35VtgHLlIbcIajDGSPv6QsEZmaJ/AI5+YlwP3T1/EKBfwcaU7LcLv0fSkWTzjHvoio28/HLV2lEaZo+4cRuzWzslXmG7Cq0Ki4eFYmWqVw9WRThmqXhddKk4a7O67+76PcHXx9YRZszWb9ms0su0LHxOZrWM9fgiiGDuuGjsg0Vr2UGsYM+uxq4mVj1h/hEI/fU6IoiG48RijDBcFV/ISZJPfQ6Q8gWQbd0rZAtdLAbgMWLJ6l1etuDdHWpDCNc1HTBP+oAfBXI+cFkGTwOag5NNhAyOGZwXFBSqde/1IiLVJnGhFmvOfUH1hYlVTUtLF5FkK6EYwqwuIgxTFioyPMKrdfe+CyRU3BkKo4F84KxX+ALdqZOLgORZQKZckz/SrhRrvWFyjRNExCxE+mjVeF3JM8WqzRfrYr9HrC0OF8iFgm8CoZ/f8gUJasVf9yUhRvfp9EpxYz4GTv1i+P3+huKliGNuNLJUvlCYLdcqIkl82xB1edACcQTlH9WMNxrfa6Rwy/0whUaG6uBLwN7HxddfUDHiIHSRkv4b2P2QIcR895VYr2C9JeY2oP5V5glNVaX8AqndSQJy+6yILUyhHvkQiL9bXJaP5Ng+KPQLdJG4lv3AFBHKZMOdYxW9PDCmiRoF1LBvF9c4m/ILJKSRkS0qKyzm0VLseQxIeFksyB5j4FYmjG1OLRar9ZSI5UVjR5TyXEPNOBGKdbOexvn4EDiIe1RUhuIM97VKWwfsf0YG5pMScyyThzCqsecN7gZ/9FNg1z3A4RlANndHL0vBiaLyNuuucSLlF0h2guHXe0QGEP82UQJS+v+pc8of2FYIIgh1fW+KVXsYSJntfXYqMz7AXovG35RfIJk7xIdfKDdsZlxuIs26wS4J5g9LgMzW8kCFLhZb6g88L0J5xKjc21k49nxxJ/ny9H5pHEP5BUI/Pul9sQhfnzuQlI+/xHCl9j9rVKD93apRUdB6sHK+W6wJYyROBKUnAbpmh9+Wv+MEoanKVCvaNLLI2LaznFSPAiIHGT81ooHcFJl9l8rPChlIlbwQy9+wGl8zVl7bEKBubwnIaxlJhZM/ibVZI7rxoe0k+gag9RtyQ9dBAplqRdtuKVIBs0/Ih8zBxJYTuioMyKtU8CqGNojdwfKbr029Pl+Q94u9YlwarAUS0ASpdK3PiBjoQtHVUq5UVcvsiItFa6Fen6/iEDiRqPddiyPQCVJLTsu8dkLjE6zEc92JJuAJUhsYcNMETeXBLgSP6+Y1gUCQWhTE7XC0FakcgsKMAF23qDiCIOUP8wPj2glNBSMxB/cBixpuHmsCHaMOwh1Gmj0hpr+zHOjAsWKQt5rbHKmdIu33hNUEDtWKii8aztgMJEw3qsj+yNZoDLizS/3RxnZHOvZwFCUFQthfxdVyqbON1hC2g1d2t21VgDEdN94Oa2vs9MhVjTrucBznCoRQEFxQxN4kfrNsTrIIJV3OV7X6RgWgNrkLF7e1EVCnu+G2Vo+QOwxvVuMs3AtEo9Eo9LSm0digBaLR2KAFotFYAvw/uw9ioc/SJj0AAAAASUVORK5CYII=;" vertex="1" parent="1">
          <mxGeometry x="830" y="-200" width="152.38" height="64" as="geometry" />
        </mxCell>
        <mxCell id="GqbqaHvvmFiSS08LwbgQ-2" value="" style="shape=image;verticalLabelPosition=bottom;labelBackgroundColor=#ffffff;verticalAlign=top;aspect=fixed;imageAspect=0;image=data:image/jpeg,/9j/4AAQSkZJRgABAQEASABIAAD/4QAiRXhpZgAATU0AKgAAAAgAAQESAAMAAAABAAEAAAAAAAD/7QF6UGhvdG9zaG9wIDMuMAA4QklNBAQAAAAAAV0cAngAGkRvY2tlciAoUFJOZXdzZm90by9Eb2NrZXIpHAJaAApDT1BFTkhBR0VOHAJ0AH1UaGlzIGltYWdlIG11c3QgYmUgdXNlZCB3aXRoaW4gdGhlIGNvbnRleHQgb2YgdGhlIG5ld3MgcmVsZWFzZSBpdCBhY2NvbXBhbmllZC4gUmVxdWVzdCBwZXJtaXNzaW9uIGZyb20gaXNzdWVyIGZvciBvdGhlciB1c2VzLhwCZQAAHAJQAAhIYW5kLW91dBwCXwAAHAIZAAAcAmkAC0RvY2tlciBMb2dvHAIFAAtEb2NrZXIgTG9nbxwCcwADQ05XHAI3AAgyMDE3MTAxNxwCbgAGRG9ja2VyHAJnAAAcAnoAAkNOHAIoAAxTZWUgUmVsZWFzZSAcAhQAIFBSTkFyY2hpdmVfMVllYXJ8V2Vic2l0ZURpc3RyaWJ1HAIPAANDUFIcAgAAAgAEAP/bAEMAAgEBAgEBAgICAgICAgIDBQMDAwMDBgQEAwUHBgcHBwYHBwgJCwkICAoIBwcKDQoKCwwMDAwHCQ4PDQwOCwwMDP/bAEMBAgICAwMDBgMDBgwIBwgMDAwMDAwMDAwMDAwMDAwMDAwMDAwMDAwMDAwMDAwMDAwMDAwMDAwMDAwMDAwMDAwMDP/AABEIAJ0A0QMBIgACEQEDEQH/xAAfAAABBQEBAQEBAQAAAAAAAAAAAQIDBAUGBwgJCgv/xAC1EAACAQMDAgQDBQUEBAAAAX0BAgMABBEFEiExQQYTUWEHInEUMoGRoQgjQrHBFVLR8CQzYnKCCQoWFxgZGiUmJygpKjQ1Njc4OTpDREVGR0hJSlNUVVZXWFlaY2RlZmdoaWpzdHV2d3h5eoOEhYaHiImKkpOUlZaXmJmaoqOkpaanqKmqsrO0tba3uLm6wsPExcbHyMnK0tPU1dbX2Nna4eLj5OXm5+jp6vHy8/T19vf4+fr/xAAfAQADAQEBAQEBAQEBAAAAAAAAAQIDBAUGBwgJCgv/xAC1EQACAQIEBAMEBwUEBAABAncAAQIDEQQFITEGEkFRB2FxEyIygQgUQpGhscEJIzNS8BVictEKFiQ04SXxFxgZGiYnKCkqNTY3ODk6Q0RFRkdISUpTVFVWV1hZWmNkZWZnaGlqc3R1dnd4eXqCg4SFhoeIiYqSk5SVlpeYmZqio6Slpqeoqaqys7S1tre4ubrCw8TFxsfIycrS09TV1tfY2dri4+Tl5ufo6ery8/T19vf4+fr/2gAMAwEAAhEDEQA/AP38ooooAKKKKACiiigAooooAKKKabiNTguoP1oE5JbjqKZ9oj/56J/31R9oj/56J/31T5WL2ke489K/Jv8A4OBtHh1/9p34V2dxu8mbRbwNtbDcSZ/pX6wG5jx/rE/76r8qP+C9RD/tY/CPa27/AIk96Mjn+Ovu/DdP+3aXpL8j828Wai/1ar8r10/M+E4vhx4dmFuB/af+kXElouZAPnTfuzxwPkb9Kl8NeEdL0bx34NvNP+1b28TWls/mvn7twA2BjpuX8q2LTw9cw/Yc+X/o+o3F2/P8D+btxxz/AKxfpzTbHTptM8UeDUm27n8XW8oweMPcsw/Qiv6Txv8Au9T/AAv8j+QcnrP69RXNf3o/mf0UW5zGv0qSo7f/AFSfQVJX8Yy3P9B6fwoKKKKRQUUZooAKKM0UAFFFFABRRRQAUUUUAFFFFABRRRQAUUE4FMNxGP8Alon/AH1QJyS3Ht92v52f2kfBej6z+1T8bL7UopiLXx5q6DyQAx36jOOhHqa/ojNzHj/WJ/31X8+Xx506XV/2lfjrbQ7PMk8fapjLfLgajMx/QV+u+Ecb4zEXX2F/6Uj8K8dq7hluHcJNe+9n5HAXnwp8K2IvfMhvf+Je0ayYZf8AlpjbjjnqM9Me9UIPhfoo8e6np8kMv2OxtBcLhhvzhCecf7R4rtNZ8O3N/wD2zs2f8TCS2aPJ5/d7d2eOOhx1z7VlwQNdfFnXo16zaaFXnA5WKv3nkjfZfcfzDTxtflb9pLbv6GdD8K/C1wYtsN9++s/tw+ZT+749vvfMOPrVCf4e6OnirQ7a2juFs9Vhadtzjf8AdLDkD0xXaWfhu4g+y7vL/c6P9hb5v+Wnye33flPNY11aPp3jjwjbyY8yGzMb4ORuWMg/rmnGKWqSFDGVpNrnb0el/JkEPw28NztBhdR/0i4ktV/eKPnTfu7cL8jY/CrHhnwhpejeO/Bt5p4ut7eJrS2fzWB5W4AbAx/eXr6Vs2vh65iNju8v/R9Rnu3+bPyP5u3ty37xc+nNR2Omy6Z4p8GpNt3t4ut5eDxh7lmH6EVhjL/V6n+F/kdmT1n9eox5n8UfzP6Kbc5jX6VJVeC4j8tP3idB/FUv2iP/AJ6J/wB9V/GMk7n+glOpHlWo89K+Sv8Ago5/wVH0z9hDxN4T0K10JvFniDWnN9fafHP5LWmmLvVpg2G/eM6nYCpUiKbJTAJ+s3kVYy2flxX4EfHD4qTftE/tb/Ezx9cTfaYrzWZtP0txwEs4CIocDsTEkJJHdmP8Rz9xwDw1SzfHtYlfu4K7876JH5x4ocY1cgyxVcN/Em7R62tq/wDI/av9lz9q3wX+2D8MrbxV4J1P7bZyYjuraVfLu9MnwC0E8eTscZHqrDDKzKQx9MGd1fgZ+zr+0Zrf7B/x4sPiB4d82TQ7l0tPE+kR/wCp1G0ZuWC5CiVSSyNxtfj7jurfvD4P8V6f458L6brWlXUd9pesWsV7Z3MTbo54ZFDo6nuGVgR7GufjThOWS4pKDvSnrF9fNP8ArU6/D3jilxHged6VYaSX6r1/A0j96nU2nV8afoIUUUUAFFFFABRRRQAUUUUAFFFDHC0Acv8AG1d3wb8WDrnR7sYPf9y9fzh+BPhxoOreFdLuLy3uDcahK8C+WQFyN7DIxx8qn8a/o4+NN5C/wd8VYmj/AOQRd8bh/wA8mr+eb4YafJfeB/D8iNHts7qWWQse2JU4/FhX7h4RQTp4jmXWP6n84+PGJlF4b2cmtJbMrRfCnwtMYdsF9/pFzJaL8yj503Z7fd+RsfhWboPgfR5Brcl4LpodLvPs8fksN20uVGRj6d67e30CeEWe5o/9H1Ke7f5s/I/m7ccct86/TmsDw1p8mrQeK7WIxiSTUhyzYX5Zdx/lX7NGKWyP55+tVJQd6je3XzG3nw48N2AvvMXUf+Je0ayYlH/LTG3HHPUZ6Y96oRfDvSR491LT5FuPsdjaC4UCT5wcITzj/aPFdfrHh+e+GteW0f8AxMJLdo8t/wA89m7PHHQ49fasqGI3XxY15FK5m00IPm4yViq4mdOtOz957d/QqQ/Djw3N5W1dS/fWf28fvAf3fHt975hx9azbvwHpJ8VaHb263P2PVYGmbdIPMxtLLzj6frXYWfh6eAW25of3Wj/YW+f/AJafJ2x935Tz9Kx7q0bTvHHhK3k2+ZBZmN8HIBWMg/rT1FSrS5naTbs9L+TIovhv4buDb/LqX+k3L2q/vAPnTfuzxwvyNj8KyPF/gnR9O0m1uLFbr99fmzk8xgc4LK2Bj1U49q7a08PzxfYctF/o+oz3b/P/AAP5u3ty3zrn05rA8f6dJp3hzT45Nm5tZaYbW7O8jDn6EfjS9SqVaSmrTd/UivfhZ4Vsjfbob7/iXtGsm1lPMm3bjjn7w9Pxqj4w+GGgaToGryWsE32rTVjB3Mpjy5XpxyNp/Ouy1fw5PenWvLaH/TpbdostjiPy859Pun1z7Vm/EKwktfDPia4bZ5V4Ldo8NzhdinP5VHJDsiqONr+0S9pLfv6H7xfsWpj9iL4Uqq/8yXpIA/7coq/B/wCDFtNp3hOe1uFaO8tb2WK4jf7ySALkN7jofxr9vP2Z/jd4N+EP7E3wnm8VeLPDvhuFfB2kBn1PUobRR/oUXeRhX4+/tE+IPB0v7anxAk+HWrr4k8H+I9Rk1aK5toJEjtJ5SzzJ86qDGJWkCsmVKNHgnBFfi/hnKdPMsXCUHaTunZ20k9L+d/mf0H4z0YV8jwdSE1zRSurq9nFamL4nsRqPhzULcruMsDqo9DtO3H417V8CP+Cunxw+A3wQ8L+CdD8NeDbiy8M2YsYbrWI5pp5Y1Y7FIS4j2hEKoBg8IK8Z1Kbam3+JutUTX6ZnmAwmOSo4qmpqLuk+/wAtdj8S4WzrMMqjOrg6jg5b26o+vfBP/BfL4t+H7oSeKvhl4T1+2Awy6PdzWMn1G5rjp6befUV9z/sUf8FGvh1+3Npc0fhq8uNN8SafF59/4f1ELHfW0YYIZV2sVli3Mo3oSBvQMEZgtfiT4m8T23hbTmnuGUtg+XHnmQ+3t6ntX6vf8EW/2JtT/Zv+DGpeNPGFhLZeOviJIl1NbXCbJtMsVyYIGU5KSMWaR14I3RoyhoyK/J+OOHcmwWA+sUoclRu0Um9ddbp30S6qx+/+GXFnEGZ5h7DES56SV5NrVdrNW1Z9qg4p9N606vxxH9ABRRRTAKKKKACiiigArzP9s7W5vDP7IXxU1G2JW4sfCOq3ERHZks5WH6ivTK4/4++Cm+JPwN8ZeHU+Zte0S804A+s0Dx/+zV04OSWIhKW3MvzOPMIylhasY78srfcz+dbwB8KNF1vw/Z3FxBJ50kZyVbGCGIBHHoK3z8FNDI+7df8Af7/61Q/By9Fx4OsP+mZdD7EsSP0YV2lf2LhZJxfKv6ex/nrm+IxEa9nJ/f23OR/4Unof926/7+//AFqD8E9DP8N1/wB/v/rV11FdWp5f1yt/M/vOR/4Ulof926/7+/8A1qX/AIUnofpdfTzf/rV1tFGofXK38z+85H/hSeh/3br/AL+//WoPwU0Mfw3X/f7/AOtXXUUXYfXK38z+85EfBPQ/7t1/39/+tS/8KT0Mdrr/AL+//WrraKLsPrlb+Z/ecj/wpPQ/7t1/39/+tR/wpTQ/7t1/39/+tXXUUB9cr/zP7zl7T4NeH7STd9jaZv8Ablb+mK6C0sbfRbLyrWCO3hUfcjUKD+A6/jViszWdTjt45HkZVggUu7HkADk1jUmqcbpGtKVfFTUZybS8x/hXwf4k+NXxi8M+BfCEdpceJPFFyY4BcMRDEiqzM7kAkIqq7kgE7Y24OcV9NaH/AMEM/wBoLWL2OPUfFPw30e1c4kkgubm4mQeoQ2wB4/2wfevUP+CCX7K818fEPxy161KyawH0Xw0ko5S2RsXE4HIy0iLEGGD+6m7OCf0wA59K/D+LuPcXhcdLC4Bq0d20m+bra/RbH9TcB+FuAxOVwxWZxblLVK9rR6fefGX7G3/BFn4f/sy+L7PxZ4k1K8+I/jKxlWe0vNQgENlYSqSUkhttz/vF4IaR5NrKrJsPNfZoXH9MDpRjBp1flmY5pisfV9ti5uUu7/RbL5H7ZlWT4PLaPsMFTUI+X6vdhRRRXAemFFFFABRRRQAUUUUABGRUUsYdGU/dbIqU9KbjI60XFKN1Zn8/v7QXwpb9nj9rv4n+BWhW3t9N1uW+06NTlRZz4mgHuVhkhBx0Oc9MVVhk8yJW7MK+3P8Agvl+zDcWEnhr446LamQ6OE0PxIiDObZ3P2eYjphZJHiJOSTND0CE18K6JqMd1AjRyeZDMoeJuxB/x/pX9UcH5zHHZfTrt625ZeUlp+O5/DfiXw3Uy3NatNLRtyi+8W7/AIbGhRRUdxdR2cDSTSRxRr952YKo/E8fnX2HqfmCTbskPdtqk+gr6Hs9K+A/7P8A49+GPw/+J+n391rPxG0CLxFq3iy812TSdL8JQXMc5tljWMN5z74CjNLhAzKxfaWRPmnQ/FNn4iluFspftH2VlWRguFywJGCev3T+XFe2+EP2u5tH8P8Ahu18Q+Afh74+1DwPGsXhnVvEGl/arzR0Rt0catuBeOMgFF4KlQd2QCPjuMMHmmLw8I5RPlaetpcrfbXy6rqfovh/mGSZdjKjz+lzRcfdvHmSfXTzWz/I5z9pj4Nf8M9fHrxP4LS7a/h0K5RIbhgFaWGSKOaPcAANwSRQ2BjcpwACAOFrW8c+NtW+JPjDU/EGuXkmoaxrFw1xd3D4+dz6AcKoGFUDgKABwOMmvpsvp1oYanDES5ppJSfnbU+IzSph6mLqTwceWm5NxT3SvogooorrOEKKKp3d/g7UyT6is6lSMFeRtRozqyUY/wBfMW/vdg2J17kCt/8AZc/Zf1r9uz9oGy8BaP8Aarfw9p7JeeJ9VhwFsLVWwUVmBHnOQVQYYl8sRtjcjnfhf8MPFn7UHxXs/h/8O7I6lr18Sbm7LFbXSoAcSTzSBSERcjLAEkkKqtIypX7ZfsPfsXeF/wBhz4K2vhbQQ15fTMLjV9WljCT6rdEYZyMnYg6JGCQq45Zizt+c8acWxyyi6VN3rT2X8qf2n28u5+4eGPh9PM68cRWi1Rg9W/tNdF+p6d4D8FaX8N/BuleH9Fs4dP0fRLWKxsraIfJbwxoERBnJwFAHNbVNHBp1fznKTlJylrc/ryEIwioQVktEFFFFSUFFFFABRRRQAUUUUAFFFFABQTRRQBkeOPBel/ETwdqmg61ZQ6lo+s2klle2sozHcQyKVdD7FSRX4a/tf/8ABPnWv2Kf2hbLQdT8WX2g/C/xFcOuheKp7Jr63tc7mW3u1TGyRSPmZQd6gyKmN6R/vA/3TXMfFf4R+Hfjp4B1Lwv4s0ey13QdWi8q6s7pMq46hgeqOpAZXUhkYBlIIBr6bhriatlNV2u4S0klv5NX0uvx2Z8fxdwhhs7ox9ol7SGsW9vNO2tmflp4G/4IveLvFsNtNffG/wAPw6dexrPbX2n6M91HcxuMq6sJY1ZSpBDK20jnPc+9/CH/AIIEfDHQrq31Dxt4m8VfEKaMHML3P2Cxlz0O2Imbj2mx6g1z2tfsQ/Hj/gnvf3N98CdUX4mfDV5WuJfBGuygXlgCdz/ZpCVBP3zmNo2JZQ0U7AtWn8L/APgsf4CtdabRfHFp4s+D3iiHAudN13T5WhRz0AZY9+P9qWGMdT05P1GPzjiDF0+bA4h1af8AcSU16xXvJ+eq8z43KeF+FcDUUcdhVRq95tuD8037v32Z9OfE39hr4f8Ajj9nG7+G+leH9K8L6OR9osDp1lHF9guwPluVAA3SdmJ5dWZWJDGvyH+NnwT8Rfs8fEe+8LeKbL7HqVmd0boCYL2EkhJoWP3omxweoIKsAysB+uHw/wD20PCPxDiQ6F428DeIdwB22mr28kwz/eVZMqfYqD7VD+0X8IPDP7V/gddJ8UeG5LkwhmsdQtZfLu7B2HLxSbGHOBlTuVto3KQOOXhHjDFZLXdPGRlKlN+9dO6fdX690LxB8OcFxHhlXy6UY16asrW5ZL+V2/B9PQ/GuiveP2kf+Cd3xA+BL3F9p1qPFnh2PLJd2g2XcK9f3ts3z+vMRdcAkkHivmu+8Z2dizCa+s4WXOQ8o3+/GeuRjGK/oDL86weNpKrhZcy8v16r5n8n5lwrmWX13h8ZTcZLv+aa0a9DcqGa9jg/iy3oOtck/wATLK/1KKys/tmqXtw3lxW1nAzSSt/dC8Z/DNe3/Bj/AIJy/tC/tFyxtpvgdvBOkzZB1LxQxsdmPSFlM5yOhEJU/wB4daxx+dYfCx58ROMF/ef5LdnblXCGPx0+ShTlN+S2/Q8p1vxHb6ZbGW6njtYfVict/VvoK9E/ZL/Yd+Jn7e+qRt4bs5vCvgNX2XfijUIj5bru2utugIM7ghgQhCgqQ8iEhT97fstf8EJ/h18KL+31z4jX1x8UPEUeHEV7F5OkwnIIAt8sZccqRMzowwfLU19waZptvo9hDa2dvDa2tuixRRRIEjjVRgKoHAAAwB2r8p4g8S6aTp5YuaX87Wi/wr/P7mfvnCPgw4ONbNnZfyLW/q/8jzD9kP8AYz8DfsVfDpfD3gzTWia42vqOpXDCS91SVQQJJpABnGThVARdxCqMmvW6aDinV+O4jEVcRVlWrNyk923e5/QWFwtHDUo0KEVGMdElogooorE6AooooAKKKKACiiigAooooAKKKKAA9KbupW5U1haZ8RNB1bxhfaDa61pN1rmnRrLd6fFeRvdWyHG1niB3qDkYJGOR61UYt6pbESqRi0pO19jcXrTqap/KnVC1LA9K5f4k/Bjwn8ZNFXT/ABd4Y0HxNYq25bfVLCK7jVv7wWRSAenI5rqCcimhquFSUJc0HZmdWlCpHkqJNdmrnyj45/4Ipfs4+N5ppj4DbSrickmTTdUu7dU/3YhJ5Sj2CYrgbz/g3p+Bc8xaG+8dWqn+CLVIiq/99Qk/rX3Znnr+lONezS4kzWC5Y1529W/zPDrcK5RUd5YePyVvyPhvRv8Ag36+AemSq1zH4v1LB5Fxq+3P/ftENei+Dv8Agjl+zj4KuFuLf4a2d5MgHOo6jd3yN9Y5pWT8lr6f6008GlU4kzWatLETt/ia/JhT4Vyim7xw8L+cU/zucr8Nvgl4N+Ddm1r4T8KeHPDNvMfnj0rTIbNX78iNVzXWBdo4GKw/EHxD0Lwhq+m2Gra1pOm3usS+Rp9vdXccMt7Jx8kSsQXbkcLnqK3Ac15NSVSXv1L69X1PZoRowXs6NlboraBR0oorM3DFFFFABRRRQAUUZooAKKM0ZoAKKN1FABRRQTxQAE4ppbBrm/ij8XfDPwQ8G3XiHxbrmmeH9Fshma7vrhYYwT0UbjlnboqjLMcAAnivjnxr/wAHBXwN8MazJbadp/j3xNbr0vNP0qKKFuewupoZPzQfyr0sDkuPxt3hKUp27JtfeePmXEGXYBpYytGDeybt+B9zXTYt5D7V+C//AATb1u9uf+CsvhHUJry4mvtQ8R6o11cNITJcmSC7Mhdurbskkt1PvX6mfs4/8Fcvgn+0/q9voum+IrjQPEOoERW2l65b/Y5rh2IVUjky0MjsxACJIXODhcV+VP8AwTV4/wCCp/gb/sYtQ/8ASe7r9E4Py2vhsLmFPF03GXs1o1bvtc/MeNs2w2MxuW1cFVU4+0+y79tz99iMAUFqJHCJknAHU18pftDf8FmPgX+z3rV1pLa9eeLtZs38u4s/DlsLwQsOqmdmS33A5BXzdykEEA8V+aYPL8VjJ+zwtOU5dkm/yP1fMM0wmBh7TGVFCPdtI+rSMelGMDNfDfw9/wCC/wB8C/GesraapD428JxN0u9U0pJIc+n+iyzMPrtx6mvsj4f+P9D+KPhOx17w3q2n65ouoqZLe9sbhZ4JwCVO11JBwQQR2II6jFa4/J8bgrfWqUoJ7NppfeYZbn2X4/8A3OtGbW6T1+43M4/rSseKb615R+0v+2z8Mv2RdMin8eeKrHR7i6XdbWCBri+uhzykEYaQrkYL7dikjLCuTD4erXqKlRi5SfRK7/A7sVi6OGpurXkoxXVuyPWMbu9JXwO//BxF8Fxqf2dfDnxKeHft+0jTbTyyP72PtW/H/Ac+1fTv7MX7cPwv/a8spW8B+K7PVby1TzLnT5Ea2v7ZeAWaCQK+zcwXeAUJ4DGvTxnD+ZYSn7XEUJRj3advn2PJwPE+VYyp7HDV4yl2TV36dz8jv+C82oXF/wD8FANWSaeSRbPQbCK2DvkW6lZH2r/dG9mb/eYnvX7WfCS/m1T4XeG7q4kkmuLjTLaWR5PvuzRKST7knmvxO/4LuDb/AMFBdf8A+wLYf+ijX7WfBcZ+D/hf/sE2n/ola+z4uhFZFlrX8r/Q+D4HqSfEOaJv7S/M6bsaAeKx/G/jnR/hv4WvNa17VLDRtH0+Pzrq8vrhYILdOBlnYgKOQOepNfOP7On/AAV5+EP7T37QP/CuvDM3iH+0rhZTpl9eaf5Flq5iQyOITuMqkRo7/vY48hDjnAPwFDLsVXpTrUYOUY6tpaJebP0rFZtg8PWhQr1IxnPSKb1fofUy9aG+uKa52IzMcYFfJXx7/wCC1nwH+BWszabHrmoeM9StnKTQ+G7ZbuOI/wDXd3SBvcJIxBHIFGBy3FYyfJhacpvsk399gzDNMHgYe0xlSMF3bsfW5G004V8P/DP/AIL7/Anx3rIs9U/4TDwfG5wlzq+lK8JPQDNtJMV+rAAdyK+yPB3jTSPiJ4as9a0HVNP1rSdQj822vbG4W4t516bkkQlWHUZBrTHZPjcE0sXSlC+101f5mOW55gMer4OrGfdJ6r5GswzRnn/PFeAftt/8FHPAP7BkGhL4uj13UtQ8RNJ9lsNHt45rjyo9u+Z/MkjRUBZAMvuYsdobaxVnxQ/4KefBP4Q/Dbw/4o1nxtara+KdOi1TSbO3hkn1C7gkBKP9nVTJGCVZS0gVQylSQQRVUsnx1WEKlOlJqbai0m7tb2t2Ctn2X0qk6dStGLhbmTaVr7XufQGfm/nTs5X2r4Fi/wCDiT4MPqIhbw38So4S+03DadZ+WF/vYF0Xx/wHPtX1t+zX+1N4H/a18CDxJ4D1yLWtOjmNvcL5bwz2coAJjlidQ6Ngg8jBBBBIIJvHZDmODp+0xVGUY92nYyy7iTK8fU9lhK8Zy7J6nomyij8P1oryNT2x1ZvizxRYeCPC2pazq11FY6XpNtJe3dxKcRwQxqXd2Poqgk/StI9K+cv+Cs2uXvh//gnd8UprFmWabSRayEf88ZZo4pQfYxu+fbNdmAwyxGJp0G7c0kvvdjhzLF/VcJVxC+zFv7lc/Ij9pT9ob4h/8FWv2srKx0q2vruLULx7Pwn4fD7ItOt+SZJBnaJCimSaUk4AwDsRFr7Y+En/AAbl+EYfCEDePPH3im716RFaVdAFvaWduxGWRfOhleTDZG87Nw52LkivLf8Ag3M8KaTqXx9+IesXAQ6xpeiW9vZBjyIp5mM7AeoMEAJ/2sd6/XvJyP8ACv1DjTiLE5ViI5Plb9lTppbaNve9/wCr63PyHgXhbC5xhpZ1m69tUqSej1SXp/Vj8TP+Chf/AARb8Qfsk+C77xr4R1i48ZeCrHDahFPAE1PSYicea+wbJogcFnQIUBBKFQ7r5T/wSfkaT/gox8K3Y7mbUrhic55NlcZr9+fFugWPinwvqOm6lbQ3mn6hbSW11byrujnidSrow7gqSCPQ1+Bv/BKWwRP+ClPwzt7ORruCHVLzype8kaWV18/Hqoz9M17XDXFOKzTJcZRxus6cW+bRXTT381b5nh8VcI4TKc9wVbA6QqTXu3vZpra/Q+wf+C63/BQvVfC2qf8AClPBmpSaeZrRbjxXe2r7ZjHKMxWAYfMoeMiSXGNyPGm4q0inyf8AYA/4Id6t+0p4B0/xp8QNcvvCPhnVoluNM0+xhRtSv4GBKzF5AUhQjaUBSQsrZIUY3eL/ALUVrF8Uv+Cr/iXT/FTn+z9V+IsWkXzO23FkLyK3GT2At1UA+gr9/LWFbe0jjjVdkYCqAMAAdK8vOMyq8OZRhsHl3uzqx55TW722/rRHsZHlVLijOsVjcz96FGXLGF7Jeq/q7PzO+Nv/AAbm6F/wiUs3w38ea5Fr0Kl47fxIIZ7W7OOE8yCKNocnHzbJOn3ecj5L/YY/bC8Zf8Exf2m7rw94ng1Cx8NnUvsHi7QLht32RuFN3EF3AyxrtbcmVmjAAJBR0/esAla/Fb/g4N8K6Xof7bulXVnDDDea14Utrm/VFw00i3FzCkrHuTHGqf7sQ9Kjg3PsRnNSeS5m/aQqRbTe6a133/yZXHXDeGyGlDPMoXspwkk0tpJ9Lf1c/TT9vv8AbIsf2M/2W9U8cxLa3+p3RSx0G2kJMN9ezAmMEgglFVXlYBgSkTAEEivxw/Ze/ZQ+J3/BVb9oHXNUu9akmmklS68SeKNSXzUtt+QiJGuN77VIjhQpGiRhcooXPs//AAVR8X6vqf7An7I9vdPM1rfeF1vLkuSfOmjsbFI5GP8AeKyyHJ/vGvtX/ghJ4X03Qf8Agnf4evLOONb3XNU1K81IqeXnW7kt1Le/kwQj6AUsDUXD2QzzDDJOvUm4KVr2SbX6X83YWOhLibiKnl+KbjQp04zcb2u2k/19UjzWP/g3L+Ga+HFjbx38Qm1gRYNwHsxa+Zj73k+Ru25/h83OON1fP3gj/gjJ8ff2ev2xfCd34TurO60TR9Wt7uLxhZ3kVoLa3D/vRLatJ524xhlaJRJG6yBS5DPt/ZNBQy5r5TD8e5zCM4VKntIzTTUlffttb8vI+zxHhxkc5wqUabpyg004uz073v8A5+Z+FX/BdfK/8FAde3fe/sWwBz/1yNfon+0J/wAFTvh3+xB8GfDulXEzeJ/HS6NaeX4csJQJoCbdGVrqTBW3Q5X7wLsGBWNwDj88f+C6v/KQzXM/9AfT/wD0Wa8N8Y/sc/FDwR8CbP4oa54R1jT/AAfq10sSahdLtk/ef6uaSMnzEilY7UlcBXYrg/PGW/U6OQYHM8qy5Y+qoxjFWjdLmb6X3+7X0Px6rxFmGVZtmf8AZ1JylKWsrN8qXVrb7zvPiv8AHz45f8FXPjJbaOtvqHiS43+dp/hvR1MOmaWg+XznBbYuN+0zzvkeYVDAFVr9Hf8Agmt/wRs079kfxLp3j3xpqg174g2kcotYrJmTTtH8yMxNszhppCjuu9wFAc4QEBzxH/BBz9r/AOH+sfD3/hVf9h6J4S8eWga5WW3j8v8A4S2JcsZy7ZZ7mNfvoxPyANHhFdIv0gJ5/CvieNOIsXhpSyXDUvYUY6WW8l3v2fl82z9B4F4YwWKhHPcXW+sVpa3e0X2t3X/DI/KX/gut/wAFENWt/FV18EfCN9Np+n2tskniy7hcxy3ZlQOliG4xF5TK8hUnzPMVCQqyK/J/sP8A/BBnVvjZ4G07xX8Ttcv/AAjpmrwrcWei6dCn9pNCwyjzSSKyQEjB8vy3bDDcUYFK+Sf2zPEV4n7cXxV1KSRZrqz8c6oYzcxJPGBDfSrGrI4KsqqiLtYEFRggjivQk/4LP/tJRoAvxVcKBwP7B0n/AORq++p5DmWFyehhsjnCm5JSnKTak20npo+/y6H5zV4iyzF53iMVn8J1IxbjCEdYpJ211X3fefXXx/8A+DdTSrXwdPdfDHxxrUmuWyF0sPEYgmhvj/cE0MUZhJHQskgJAHy53D5i/wCCcf7bXir/AIJ2/tISeEfFbXWn+Db7VTp3ijR7wnbo9xuERvEGfkeMgbyuRJEpGGKxMmEP+C0n7Sn/AEVZv/BDpP8A8jV4f8X/AIzeJv2mfiZd+JPFGoDxD4p1ryoJp4rKCCW9ZFEUY8u3RFZtoRRhdx2gdq2y3I81q4Wpgs+qQq0pJ2d7yi++sV63vdehjmue5RRxVLHcPUqlGrFq6t7sl8pP7rWPvL/g42kWT42/DVl5B0S7OfX98lfN37AP/BOHxj+354qvG0+6j8P+FNHdYNS1+6haZVl2qVt4UyplmCbSV3KsaFSx+ZFf1n/gs3DrcHhz9nWPxLDPbeIl8AwrqkU/Ekd0Fg81WH94SbgffNfol/wR68F2Pgv/AIJ4/DlbOJUbVLSbUrmQKN00008jszEdcAhRnoqKOgFeDWz6tk3C1B4W3PJuKe9tXqvktD6DD8P0c94vrrF6QilKUdVe6Wj+Z4be/wDBuX8MZNAeO28dfEKHVfKwk8sllLbLJ/eMIt1Yr/siQHH8XevoD/gnJ/wTu0v/AIJ9+BNc06DxBceKNY8R3SXF/qElr9kjKxgrFGkQd9oXc5JLsWLk5wAB9HgUdTX5TjeKM0xdB4bFVnKDd2nbf1tf5XsfseX8IZRgcQsVhKCjNKyavs/K9vnYPK/zmikorwryPo+WJITgVx/xz+FNj8dfg34q8GakzR2PijS7jS5ZFUF4RLGyeYoP8S53D3ArsG5WozwKqnUlTmpw3TuvVEVqUatOVOezVn8z+fH4CfFnxv8A8Eqf21riXU9N3ap4dll0fXtNLbE1Sycqx8pyoOG2xTROAAcISMFlP7EfCT/gqh8Bfi94St9Wh+JXhjQZJEUzWOv38Wl3dq5GSjJOy7tp43RlkJBwzDBqb9t//gnN8Pf26NEgbxJb3Gl+JNPhMdhr2n7VvLdMlhE+4FZYtxJ2ODjcxUozFq/FP9s39kRv2QfipN4XbxEviLynKfaRp32POCB9zzJPUH73GK/Z8PSyvjDkdZuliYpJ2V00uv8ATuvM/B8VWzbghzjQSq4WTvG7s4t/j+h+iX/BSv8A4LR+DdH+F+teB/hJq48SeKNcgewuNbsywsNHicYkeOYY82YqcIYsqpO4tlNjeO/8G/8A+yBqPir4v3Xxg1Sxkh8P+GbebTtDmkXZ9svpV8uWSP1WKEyRscbS02AcxuAf8E5f+CNPhX9ojwxpvjjxn4q1K+0XziG0GytfsnnlSp2yXPmM/lkZBWNUfnIcV+tHg3wXpPw78MafoehabZaTpGlwC3tLO0hEUNvGowEVVwAB7V4+eZpl2TYGrkeVJynPSpOX4paL8rHt8O5TmWe5hSz7N2owhrThH83v/n6H44f8F4P2RtS+E/7SrfEqyglbwv8AEARie4jUqthqUUQRoiQPl8yOJZVJOWYTcDbk/Vf/AAT5/wCC1vgb4ofD3TPD/wAVdctPCPjbTYUt5dQ1AC307Wdox54m/wBXC5wC6OUG5vkyMhftb4ofDDw/8bPAOpeGfFWk2etaDrMRgu7O5Xckq/eB9VZWAZWXDKyqwIIBr8hf+CjX/BIHQf2VNCm8WeFfGGpSaJcSlIdI1CyWea2PLEC5WRdyDooaMsAOWY5J0yPMMu4gwVLJszvGrDSE11XZ/wDB080zHP8ALcy4bx9XOsptKlU1nBvbzR+hXxx/4Ky/Af4I+FJdSPj/AEPxXcbM2+neGryLVbq5fGQv7pikef70rIvvnGfyD1u+8ff8FZv25Wa2tGi1bxfchEiRmmt/DmmxYXLMduUhjO5m+XzJGwqhpQtV/wBhD9iD/htj4i/2CfFH/CMogd2mGm/bGYKMkAeamCfU5xX7WfsZfsI/D/8AYg8FSab4QsZptRvwrajrN8yyX+okZ2h2ACqi5O2NFVASWwWZmb0MT/ZfCMZwwrlUxU1ZNqyin1/ptvyR52Dea8bThPF8tLCwd2k7uTXT+rL1PHf+Cqv7B7fGT9hDS9A8E6fJNq3wsjgutEsIE3zXdrBD5ElqgxksYfmVQMs8Maj72a+E/wDgkf8A8FRLP9i+9vvB/jRbqb4fa9dC9S8t4jNJotyyqjybFBd4XVF3KmWUplVJdhX7cZ3IK+Gf+CgX/BGP4f8A7Qmo6x468P6jceAvFFwHvtRa1tVubDUnwWkke33JtmcjJdHUFizMrsxY/OcNcQ4SphZ5NnKbpTd1JauMn1+/Xr6WZ9PxZwzjKOLhnuSSSq042cXtKKWi7bHvUf8AwUg+AsvhtdVX4vfD9bdofP8ALbW4FuguOnkFvNDf7G3d7V80v/wcBeBtX/aR0fwjoXhHV9W8H6nfw6c3iV7k2sivLJ5YkSzaPe0QLISXeOTG7EZwA35Q3PwlaD4vHwn/AGgrMJzCbv7P15xnZu/9mr9cf+CfX/BGbwH8B9V0Lx/4i1S48d+JoRHqGmC4tBaWGlyFQ6SLAHcvMh+67uVBCsqK6hh7mbcJ5BkmHlXxk51XNPkja2vR3VtvPTyPByfjPiLPsVHD4OEKSg1zyvfTrZO+/l958Of8F2H8z/goHr3cf2LYdv8Apk1fs14L8G6X8Rf2ddH0PXLK31TSdX0CC0vLW4TzI7iJ4FDKwPXINfmn/wAFof2P4/iB+3f8Np4dffT2+LDwaBKHshONNeN1j89fnXzAVlX92duCjHcdwC/qn4X0SHwr4Y03TbZpGt9Pt4rWMucsVVQoyfXivF4pzCnPJsuhSb5oxfytpv6nucG5fOOeZm6qvGUl8767eh+FX/BQ/wDYM8Uf8E3Pjlp+veGrrVB4QvL4XXhjXYGPnabcJ+8W1lcfdmQKWVj/AK1FJHKyhf05/wCCXH/BSLS/25Pht/ZurS21h8SPDtup1ewU7FvowQovbde8TEgMoyYnIU8NGz/QXxq+Dfh39oT4Xav4Q8VabDqmha5b+TcQP1HOVdGHKujBWVhyrKCMEV+WX/BMn9i6L4Wf8FavEuj2/iW6urf4Rx3M0TtaBH1VJ4mtlSTD4XaJ9xIBDNGMBe3dLNKHEGSVFj1bEYeN1NL4le1n+T+/ucMcpxPDee0/7Od8NiZWcG/he+n6fccD/wAFqv2U9c/Zx/a5m+Imkx3dp4d8dXSanZajagoNO1VFBmi3g5SRmT7QhON299oPlNj7Q/Ya/wCC03w0+NHgTTdL+I2rab4F8bWcKxXkmoEW+l6iyjBniuD+7jDcExyFSpJC71Xefr74vfCHw18efh7qXhTxdo9rrmg6tFsubW4Bw3cMrDDI6kBldSGVgGUggGvx5/4KSf8ABJPRf2N9D/4Sfw74y1LUNGvJWW30y/sUa4tsAZBuEdQwyeP3QIHBLHmtsnzDLuIcJSynM+aNaGkJrqrbPfotb797nLnmW5hwzjK2cZVyyoVNZwl0fVr9LH6JfH//AIK0fAj4FeDptQh8baD4y1DYfsumeHLuLUprl+yloi0cQ7lpGUYBxk4Brf8ABNr/AIKV6b/wUJs/FEaeErnwjq3hV7dri3N6t7BNDP5ojZZdkZ3AxSBkKDHyYZskL+TX/BP/APYPX9uLxzJpUnilvDMNqplkdNNF28iryVX94gUn1IbHoelftZ+x7+xX4D/Yl+H02h+C9PmWS9dZdR1O8cS32puoIUyuAowoLbUVVRSzEKCzE+dxVkmTZPh3g4SlUxLad3okvTbX5v0PS4P4gzvPMUsbOMKeGSeis2366v8AL5n50/8ABx5x8cPhr/2BLv8A9HpX3l/wSlGP+Cefwq99ET/0N6+Uv+DiT4Fw6v4T8A/EBdRkiuLC9bw9JZmAMsyzjzVlD5ypTyXBUht3mDldp3fdP7Ivwah/Z9/Zp8FeDIb6TU10DSordrt4vKNw4GXcJk7QWY4XLEDA3MeTjnWMpVOF8FRj8SlL8N/zR05DgqtPi/HVZLRxi18/+GPSFGadSZxS1+eI/UQooopgf//Z;" vertex="1" parent="1">
          <mxGeometry x="848.28" y="-120" width="115.82" height="87" as="geometry" />
        </mxCell>
        <mxCell id="GqbqaHvvmFiSS08LwbgQ-4" value="" style="shape=image;verticalLabelPosition=bottom;labelBackgroundColor=#ffffff;verticalAlign=top;aspect=fixed;imageAspect=0;image=data:image/png,iVBORw0KGgoAAAANSUhEUgAAAYEAAAF8CAYAAAApVQfjAAAAGXRFWHRTb2Z0d2FyZQBBZG9iZSBJbWFnZVJlYWR5ccllPAAAA4JpVFh0WE1MOmNvbS5hZG9iZS54bXAAAAAAADw/eHBhY2tldCBiZWdpbj0i77u/IiBpZD0iVzVNME1wQ2VoaUh6cmVTek5UY3prYzlkIj8+IDx4OnhtcG1ldGEgeG1sbnM6eD0iYWRvYmU6bnM6bWV0YS8iIHg6eG1wdGs9IkFkb2JlIFhNUCBDb3JlIDUuNi1jMTM4IDc5LjE1OTgyNCwgMjAxNi8wOS8xNC0wMTowOTowMSAgICAgICAgIj4gPHJkZjpSREYgeG1sbnM6cmRmPSJodHRwOi8vd3d3LnczLm9yZy8xOTk5LzAyLzIyLXJkZi1zeW50YXgtbnMjIj4gPHJkZjpEZXNjcmlwdGlvbiByZGY6YWJvdXQ9IiIgeG1sbnM6eG1wTU09Imh0dHA6Ly9ucy5hZG9iZS5jb20veGFwLzEuMC9tbS8iIHhtbG5zOnN0UmVmPSJodHRwOi8vbnMuYWRvYmUuY29tL3hhcC8xLjAvc1R5cGUvUmVzb3VyY2VSZWYjIiB4bWxuczp4bXA9Imh0dHA6Ly9ucy5hZG9iZS5jb20veGFwLzEuMC8iIHhtcE1NOk9yaWdpbmFsRG9jdW1lbnRJRD0ieG1wLmRpZDowMzgwMTE3NDA3MjA2ODExODA4M0QwQkFEQkU3RjdFOCIgeG1wTU06RG9jdW1lbnRJRD0ieG1wLmRpZDpGNDFCN0QxMkQ0MzUxMUU2ODU5NEVFNUQ3M0I0MDVGRiIgeG1wTU06SW5zdGFuY2VJRD0ieG1wLmlpZDoxQzExMkMzRUQ0MzMxMUU2ODU5NEVFNUQ3M0I0MDVGRiIgeG1wOkNyZWF0b3JUb29sPSJBZG9iZSBQaG90b3Nob3AgQ0MgMjAxNyAoTWFjaW50b3NoKSI+IDx4bXBNTTpEZXJpdmVkRnJvbSBzdFJlZjppbnN0YW5jZUlEPSJ4bXAuaWlkOjRjODZjMTllLWQxMWYtNDdiMS05YWFjLTRiNWVmODRjMThkZiIgc3RSZWY6ZG9jdW1lbnRJRD0iYWRvYmU6ZG9jaWQ6cGhvdG9zaG9wOmQ0NzI2MDA0LTFjOWYtMTE3YS1iZjJhLWRjYzRiZGI1Mzc1NyIvPiA8L3JkZjpEZXNjcmlwdGlvbj4gPC9yZGY6UkRGPiA8L3g6eG1wbWV0YT4gPD94cGFja2V0IGVuZD0iciI/Pk36i54AADQvSURBVHja7J0HnBXV9cfPsr3Rm6iAoICI0i0I2I0Yo9g1djTYsKGRmL8aNRpjiRV7CWqssWJL7KJGFBS7FFFUqrAL2xu7+79n3qC4vDczr+3OvPf9fj7n82BfmZk7d+7v3nPvPSejublZAAAgPWlHEQAAIAIAAIAIAAAAIgAAAIgAAAAgAgAAgAgAAAAiAAAAiAAAACACAACACAAAACIAAACIAAAAIAIAAIAIAAAAIgAAAIgAAAAgAgAAgAgAAAAiAAAAiAAAACACAACACAAAACIAAACIAAAAIAIAAIAIAAAAIgAAAIgAAAAgAgAAgAgAAAAiAAAAiAAAACACAACACAAAACIAAACIAAAAIgAAAIgAAAAgAgAAgAgAAAAiAAAAiAAAACACAACACAAAACIAAACIAAAAIAIAAIAIAAAAIgAAAIgAAAAgAgAAgAgAAAAiAAAAiAAAACACAACACAAAACIAAACIAAAAIAIAAIAIAAAAIgAAAIgAAAAgAgAAgAgAAAAiAAAAiAAAACACAACACAAAgBtZQb+AjIwM7iKEZfiU5fnmZQdjg4xtbqzQWLOxKmPLjH1t7PN503vVUloQD83NzcFtQ4N88ogARGj8tzYvFxg7zliBy8crjc0wdqMRg28pPUAEEAEIbuOvvf4/Gztcond1Nhp7zNjfjBh8RWkCIoAIQHAa/53txv93CfrJ54xdbcTgA0oXEAFEAPzb+O9lXv7P2B5JOsTr9sjgDUobEAFEAPzR8OsNP9DYRcZ2aqXD6ojgamMzjSA0cxcAEUAEoPUbf13Jdpjd8x/SRqfxpY4MjD1hxGA9dwUQAUQAkt/455iXE4xNM9bfJ6e12Nj1xu43YlDPXQJEABGAxDf+urRzsrHzjW3h09NcYYvB3UYMKrlriAAigAhA/I1/R/NyhrGpxroE5LRLjN1q7BYjBmu5i4gAIoAIQPSNf1e713+6sQ4BvQzdiXy7hDaereCuIgKIACIA7o1/b7vXf6qxvBS5LA1D8YCxa4wYfMddRgQQAUQANm38NbTDn4wdbyw7RS9TdyE/KqGNZ+xCRgQQAUQA4gztENg2wthMCW08+5BagAggAohAOjb+iQ7tEFRes8XgTWoFIoAIIALp0PgnO7RDUNFdyLrx7Hl2ISMCiAAikGoNf1uEdggqX9hi8G92ISMCiAAiEPTG3w+hHYKK7kK+ztg/2YWMCCACiEDQGn8/hnYIKuxCRgQQAUQgMI1/EEI7BBV2ISMCiAAi4NvGP4ihHYIKu5ARAUQAEfBN458KoR2CCruQEQFEABFos8Y/FUM7BBV2ISMCiAAi0GqNf0qEdmjXTuTwsYXym5F5otXllY9q5fF3qqSpKdjtjoRyIevGsznUVkQAEYBENv4pFdrhyuM7yv6j83/1t6f/Vy1XPlqWKrfsVVsM3qL2IgKIAMTT+KdcaIchfbPlwfO7hn3vsKtWy7crU2p/lu5CvsrYC+xCRgS8ksXtg1QO7TCkT07E94b1y0k1EdDd2Rqo7nNzT3UX8pPsQgZEACI1/GkR2qGdgzMrLydlR5HbS2jy+Epzn681rzPYhQwRnxGKIG17/h8Ze1ZSPLZPbV3kYfqKtY2pfqt19/Zdxhaae340NR8YCdD4q2/kFgkt9UwLFixriPjeklVp4ynpY+wRc/8PNa8nmVFBBU8DMBJIPwFoL6FY9qem03UvWNog68N0+KvMCOH7VWnnLlcRmGVv+gNABNJIAHSN/9PGxqXbtasArCjdtLFfva5RmtJz/cwwYy+YOsGmP0AE0ojLje2Vrhe/umzTXWFrypvSuT7oPNA1PBaACKTHKGA783JhOpfB6rJN/UGlFY3pXjXOMnVjKE8IIAKpz1+MZaZzAZRUNIURgaZ0rxcZdt0ARABSeBTQw7wcnO7lUFmzqfO/uo4NtYYD7ToCiACkKBOEZcBSlLfpprB2RBsRe4Q4gWJABCB12TPtK7ip4cP6bxo6YsDm2dSOELtRBIgApC67pnsBnHlAsQzuvWmDP2ZwrhwxvoAaQh1BBCiC1GT4lOU9zUu/dC+H7ftGDiA3djBL5Q3bmLrSnWJIXwgbQQ8v+D2ZDKN2PbNkm82zZeteWbJVjyzZrHOmZe0LIvdzdhyYI49O6yrLSxplmbFvljfIlz80yHer1gc94UwsdeUZHhlEABCBwNCtQ6bssUOujB6gluPY2EciJytDBm6RbdnG1NY3yyff1sv/vq6T940tXpHy4SXGIAKIACACvkcb+v1G5cl+I/JlaL8cSVY+IQ0xvfOgXMt0ge33P62Xl+fWyEtzamTpmpTcZDaWxyV9IbNYCjJ8ynLNpVieKiLff7MsOWq3Qvnt6Pw2zwEwe36dPPJWlbz3VZ00p85WAw212n7e9F61PD2xQWYx8Bujk3lvc7Iz5KjxBTJi6xyprG2WVz+ulbc/T3z7oX7+Mw4olj2H+mcCd8MIYYkZHdz1UqW59pqkBKLr0UndXXlSkJshcxbWyedLGpJ5WeoPG2nsPR6d9AMRSE2S5grSgdeNkzvJLuoqsdl/VL48N7ta/vZYuTQ0xt8idiluJ+dMbG/1/P060OvbPUuuPrGjnLh3oUx/vsIaGSSKI8cXytRDiiU7c8PFF8vdL1fKnS8lNQ3AWEQgPWGJaGqSNB/vSNP731gANnDQzgXy90kdHdM5ulZG0+YdPq5Anr6kmxywo38FYGN0UvnW0zvLdSd3ku4d4w/RNOV3xTLt8PYbCUCIP+xXZAlPEDsOgAhAK2LnDt4lWb/fq3Pkhk7dF5cc3SGmxruHaUDvPruLXHREBynOD1613GtYnjx1cTc5ZNfYN6DpvMekfYsijsC27Z3UXc5j7LoDiAAEnG2NdUrWjy8tcV4doyMCbcijEQIVj8cv6mrNMQSZwtwMufioDnKtGRVEu2RVR0AXHtbe8TNJjnzaRQc2PD7pB3MCqUdSl/t9srhevv6xQbbdMnKv9LCxod7w1U+UOa6gUaE4dUKxTJ5QlJBzW7m2UeaZ81u4tEEWLFtvTeAev1eh43f0HOsbQiuQtKe9fd9sa/9APOxtRgXbmd86645S+Xal+x4DLS8VTidWlDbKx9/UJ7vuqEtoPo8QIgDBJqm+XV0JM/XutXLD5E6uQqCTxP94qjzs6hldYXT5MR3kNyPz4xalV+fVyrtf1cmPq3/d4O44wH1k8cNPjfLBgrpfnddQIwR7moZ8r2H50rV9bINl3a08Y2pXmXpPqcxdFLnx/v3uhXLBoc4jAA17feH9axMy6e6h7tzHI4QIQLAZk+wDrFrXKCf+o0SO2bNQTvlNkbWMMRxH71YoPTtmyqUPrbMSu29A1/rffFpnGb1NbO6fdZVN8uz71fLku9WyvDSye6owz70BL2wRZrq+oVnmmEZb7bony2XHgbnWdYzdLjfquY6i/Ay5/cwu8n8PrLWEamN04vd80/gfMc55DuHT7+rlikfK5LuVrbJrmcnhNITNYimEHQhsVWseU3vKp/22WA4ZE7kx04Za19PXNYg8NqtKrpnUKSYBKClvkn++VilPmca/rsG93l55Qkdr+aoTl/1rncz8oMb1t/p0z7IEb/8Ylq3qSOjSB9fJK/NqZOIuBdYqqINNebUMV9FSaG99rkJe/qimtTeldZs3vdcanqboCHI7igiklghoFrGn2+LYw/rlyMVHd7A2eDlRv745ap+7ukEefL1K7vtvpRXXxys3ndpJxg9x3mh2/dPl8sibVZ5/U4PUTT24WHYamBu1EKi7qo/LMk8NXPfQG5Vy18vRXWsCOciIwEyepvQRAVYHpRZj2urAGnDtqL+vlrteqnCMwBmtAHz2Xb0c8bc1ctvzFVE3il7cQeGyjjmxaFmDnHFbqVz2cFnYtJURH7QMcRWAL79vkKOvXSM3P1fRVgKg4BJKMxCB1KJNA4GtbxSrB3vKzSVxL2fUnrPukJ10U4kVwC0WivPdG/iC3OgfAe30zZxdLYdetdry2ScCHeWceMMaS2TSuQ4BIgAxMnzKcvV7jPTDueioYPItJTHH1KmoaZJz7iy1QiXEE9e/KD/xI4GNWV3WKH8wgvfo21VxldflZlRx2wsV0uiPHAYjTV3K5YlCBCB4aNA43yTO1fXxJeXRh13+aV2jnPCPkoTE4in00MAX5sU3p6SjH11FdP1T5TF9X1c6zfyg2k/1KNcvnQlABCA6fOfLvfqJcmvJpVdq6pvl5JtKZMmqxCyHLPK0RDQxj4CGl7752eiF4PkPa/wYkhqXECIAiED8aNrGrEzvPe38nAz563EdrY1WcXdnszMk00PtLspLzOoy3SV80r7R7Xwuq26SO16soC4BIgDxYQf+GuOnc9KVuxoLJ9qoosP658jjf+oW907ionxvjXu87iDdKHfZsR1jihfUwXxeo4P6kF14qhABCBYa+Kuzn05oP9OIxxoQThtwjdV/hRkVFObG1kgXeXTzFMURsVTjDD1mBOvAnWIXrOP2LJItumb6rT51Mx2LATxWiAAEB18N3zUkwpm/K477dzSngDay2thGi9cevtcRw68eGvPU6O7hf57XNe4GPMt8/dyJ7alTgAhA6jywE8fkO+YdiIbNTSOrja02utG4lryKQLQTw3pd953bxUp72S5BT4+mzxy0Rbbf6tQYHitEABCBmEYBk/ZJrJ9bG1ttdO89u4vnSWOv7iDdyZvvMXm9xg16/KJuMnSrxOc9+MME380NsEIIEYAgMHzK8m7mxTf+272H51lJ0t147ZPaqDeTRTNpXByFm6fAZdSgmc7+dmJHufL4jlFPJOu+h8887Creffu8ZKePjJZBpm514QlDBMD/+GrYfuR49/SKX/3QINPuXyt/MqYB5aLB66Rx+0LvVdtp1DBcheeirtZEd7Tohjnd+HblY2WuewF0NdUR4wuoW4AIQNT4xhW0Zbcs2cGDq+SGZ8qtRlFHA6dPL7XCRESL26Tx9n28u2zChXTWCVud3L7nnC7Ss1P08xsaU2jSjSVWSOhvlq+X5z3sCp4wKn+TBPPULUAEwA3f+G4njMpz/YxmAts4TaKmg9zQWEZLpEnjPYbmWW4pr5w7sVh6d/vFFaP/1t89ed8ia84gWt7+PCRu5dW/iNuMV6tcRwMdzOhl/Pa+CtuDCKQB5BMIMHagL41V4IsM7U9f0s3Vrz31nrXy1me1m/y9R8dMufX0zrJ1r9j84up6UXHp3S3TygYWLRoD6ONvQvGKRmyda40EYkEznqn7J1zgOy/5Dd75ss4KnucT9EZ1mDe9V72AI+QTgLZipF8EYKueWa4CsKykUWZ9Xhv2PR0JTLppjWM+Xic0mY3mNY5FABRt9PW7arEKgEY91VSQkSKfPva2u0to50E5VvpNn6CKNYLHLLVBBIKNb1xBOw5wb3z/M7fGcUWQJmk587bSTfLx+h29pr89XmblP3Diw4V1sqbcef5D5wRGD8jx0+XhEkIEwMf45gEd5SFn8Itz3HP5airJP/1zbVQpH9sSjZJ64X1rraT3rmJh2v9XPnIvg10GMS8AiAB4wzdL+Ea59F41PLTXENHqXtXcv/94utzXha8jl9PNyOWNT72PXN78zP2zYwYjAoAIgAvDpyzXoHFd/XAuuoSyg0sEzdnzo08S87AZDUwzo4L1jf4r/5/sOQxd3RQNn33X4Jo/WFcnFeb5Zl6gu6lr2/DEIQLgP3zTQ+u3mfuKng8Xxjbh++rHtXLmbSVSVeuf1Rc6ojnxhhJr/X+0qLvro2/cy2LA5r6KJcSmMUQAEAEHEejpLgJffh97AvU5i+qthPM/rWv7IYGGgDjpxhJZuTb2c/liibsIDPRXQDlcQogA+BDf9M769nAWgbWVTVZS9nhYtKxBJt9SaqWgjBZdfrqi9NcWyy5lDXdx2vRSKauKLyP8/KXuI4j+m/kqjhAikMJkUQTBww7sNcgv59PJJU7PNysSkzP4h9Xr5Y1PauW3O3qP4/Py3Br5vwfWbfL37h0z5eELu0qXYu/9oBmvVrr6872wYKn7qEg3z/mIbU2d6zRveq+1PH2MBIBRwKYiUORcjVaWJs6NE81IQH32f320LOx76lrSIHaNUXTqq+oSMy/xkxkVNbkct3Oxrx5NnaUm5SQiAAzPw9PBZSQQrytoAznZGTJuO2/LJ9Xdc949pY49dw0zceMz3peh7jU0LyHXoQJQUuFcJt06+O7RJL8AIgCIQHjcwhyUVjbFfQydfL7+5E6echXoPgN1AS1b4y4+j7xVJS/NrfF0DofsWiAn/6YoIWEd1rqUSaeiTOoctArMCQSM4VOW666s0UE6Z91VG3WvPytDRm6TI7sOzrWCrkWTy1dzFESzL0Gjfu4/yts8w5kHFFtRS3XJ6/++qpN3v6r1JDabjlScyyTLdxogo03dy543vVcDTyEiAG2LBo3LDdIJexUB3XSmjf64IblWLKJYe9y52Rmy7ZbZ8vkSb+3VkD45Uf++uqXUpkl7+f6n9fLul3WW6eaxaBPlBARVSQ0m9wGPICIAbUvgfLORwn1nthMZ2i/Hakx3HZwXcxjpsCOm/jmeRSBSYhqv9OmeZdkxexRacxAaKG6DKMSzn8CH7IoIIALQ9vhu9+a6qibHBPCFG+X71VUvYweHGv1dts210kUmAxUXed09CJ0K0aAEbszS0Yu6rzbkDVi8Yr3872sVhFr5ZHGDtWPYKhOXsBAbPufDuncDjyAiAIjAryhxCY88eMtsOXX/YqvHr26a1sgDNLyfNxfP1r2ykxq/Xzd9qR23Z6G1xPTD+TqPUOe6t2JtRZMf6x6TwykImcUChB3Ia6HfzuviozvIIWN8lyTdyktw/yuVYTdnabXR3vrkCUWWMPmNr39skGOuXePHath/3vRe39J0/pogt6OMBBgFxCnC4sson8o+w/Ms05SN9/230or7o+6fvYfnW/mDEzkHkWjWVTb59dR0NIAIpBCIQLDw1XBc1+zPmNrFbyEONmHDSh5dudOtQ2ZUy03bCp3TuPzYjnLLc+VS4i/XkNbBh3gUEQFoG3yxMkh37o7cOkfOO7i97wVgY3TFUFAoyM2Q3+2Ub4XkuOifaxMWsiLVOiKQgNE8cwIBacCmLO9sXkpapZHPypDNTW9Zg6v1sBPG6GtP0+D37p4p/TfL9uNmppSlrqFZPv22Xr74vkG+XbneWna6Sm1dY1u44rTB6Dxveq913JmNCoU5AWgFkh7A68CdC+So8QUyYItsaecTbdXE7ItXNFhLLdW+Wd5gBZGbMCpfTti7KOnnqS6kW56rsBLJ9Oycac0j9O+ZZSXSUTHsZf6W7H6Ibk7bcWCuZRujCe4rqpukzNjS1Y3yuRGJFz+slqVrkqoMG4LJvcwjmRogAsEhqa6gsw4slpP2KWqzi9OJ0MUrf2notce7ePl6q4ELx60zK6zQC2eb804Wy0oa5YzbSq2euKLn0nKlkS4v1bhGW2+mwpBt/VuXhDrtm0gUKoAavE9NU1JqbmKd8L7m32Xy1HvVya6LiAAiAK1M0nyxGq5Be9WtgSZnX7yywWrgrQbf9PK/Na+xTH4+MasqqSKgCeTrXEJe6A5hTTajJvJLIDrdDKaC0K9ntjV6sITCvOrEdFIfaPPz/3dUByv3wpwYU3r6YVQKiABshAbuMi+jkvX7GjYhWrdKqWm0F5kee25WhgzzOOH6zhd1cs5dpQk7b/WHqys2We6YeH5WcyJr2IqNQ1fo7ujXr+4h2ZneflnzIWi46y27ZZp7lBPV7upj9ygyIlCarCqzk6mTWfOm91rP04kIQOuggbvyk/XjP63z1gtXF81/P6qRN00PeeNsYdv1CW22mrxfsRX8LRLqrujSvp3rDmOv7DgwJ6n++L2G5clNz5ZbvvdEMG67PE8CcM6dpfLjmkb54af1Px+7XTuRYf1yZN8R+dbeB7dEPuubkjpRqTsDhxr7iEcTEYDWE4Gk8dmSenn/6zorlk9LNDnL0+9Vy4tzaqyeaTg2JJF/9v1qRxHQjVqH7logd79cmZDzPmxscncpq19/3JA8K9R0ItBrd0Mnwt8z96Jl5jH9v44K1K59skxGbZMrR+9WYO16bimEKrI3RJEsJ9YBJCKACEDrsU0yf1xdKufds1aO3aPQasSL8tpZE6Dvz6+zev3VHteoa9RMnTzVJaWROHq3Qnn4jaq4173rqhztWSebI8YVJEQEBvfOlhFbu7vN/jO3xjX1pL7/4YI6y3Q+Z/z2ubLDVjnW6EDnJh59q8py1yWZPjyWiAC0Hp2TfQCN+a9xdtRiRSNfzpxdYwVLi4SuZDl2ryK566WKuEcB0biC1I2lgdt078OkfYukfYG3pHo7D8qVLbtlyY+r43N/n+VhAlvF+N/vRreqR/cMPDGr2rJWpgOPZWpAeslgUB+UE9V0jW7J23XE0SWOROq6me2gXby7gqY/XyEXzVgnL35YIw++XiXHXV/iuaesQqOjgXjYfYc82Wmgex4gDTkdr9i0IpU8logAtB4rg3KiupP1vx875+zV5ZPnH9o+5mPs7WFidAO6VPLB13/dXmlDqxO+XtHwDbGGm9ZrnXa4t2t94LVK6iQgAhCWL4J0svf+p9LVr73fyHxrtVAsHDm+0PNndbdvuNAKL82pCRtiOhzqOvrNiNgWZ031GF/po2/qZe6i+iDd5s94LBEBaD3ekFDMlkCgIRZ0pZAblx3T0co0Fg0Dt8j2nA7yk2/rrQ1f4dAVlDc+631e4sjdoncJ6cqdgz3mWbj9hYog1UcdspBmEhGA1mLe9F6aXeTVIJ3znS9VWDF+nOjavp389fiOUU3wRuOfd1smqatrNNeAFwZFIT6KLi+94jhvc6evfFxjxSgKEE+aOtnAk4kIQOtyU5BOVte7e+nd7jIoV84+yJvPvDi/nRU4zguaVewLD4nmb9bNYB5XUx65mzc3lIaBvnFyJ08rkHT57Q3PBGoU0By0ugiIQKqMBjRg1+tBOudH3676eSOZEyfsVSiHe+jhe52g1TmAW2Z6m/jVXdDPzva2vFJ36rq5r3RH8DWTOsmAzb2NGvQ8f1rXGKTb+qCpi5/yRCIC0DacYqw8KCerPezLH14n9evdpzOmHd5B9nfo5avL6DCPrqDHZ1XJsijCKd/xorvrakMDP9Fhaaq+f/VJHWVXjxPeOhH873eqg1T/lho7j8cQEYC2Gw0s0Y5zkM5ZYwxd/5S7bmkAuyuO7xhxInXHAbnSt7v73kYNc6Grk6JBwyzMeNXbd3STWrswT41mW7vulI6y51Bvu5jLqprk0ofWSYBykeikxWGmDq7lSUQEoG2F4FnzcnmQzvnJd6utHbtehOCSozvIqfsXbzJZ7HVCWAUgUg4CJx56o0pWl7mPHqwwDUN+3dCri+iuszpv8ncnLn5wnbXbN0CcauoeK4IQAfAJKgLPB+mEr3ikTOb/6G1ByakTiuTvJ3ayJlgVXWe/2/buDezy0kZ5PMbwCZoX4PYXvI0GNp6/0AiqD13QVYZu5T1/8W0vVMh7X9UF6fZNNwIwg8cOEQD/jAbUiXCssflBOWf1uZ91Z6msKPXW+91nRJ48Oq2rDOmbLYfsGt4F0xLNNuZl/iESz39QHTFS6sboiiZ1TR27Z6Hcf16XqLKIaeiKeOIztQGzjE3lqUtdSDQfYIZPWT7AvHwoAQrmtVXPLLnvnC7S0WPYB51crjMNe77LqiCNnnnc9Wvi9rFrA3/bme7x+sqrmzwHofu5Nf2iVv547zor0F5A+MHYKNPpWE1T6UyQ21FGAsEeESy0RwSBqYHfrVwvk28tsXIKe6qgpobme1gW+o+nyxMyyarhszW3ghvRCsCcRfUy7f5ACYButT4EAUh9EIHgC8EL5uXiIJ2zulxOvrkkYevjNd5/Infc3pjAbGKKlVbzzlLXfMU+4xRTt0gagwhAQLja2FNBOmEdERz/jxLPQdwioe6im59N7I5bFSmdH0gEMz+okfPuKbUmngPEDUYAHuaxSg+YE0gRhk9ZXmReZhvbLkjnra6eq07oaMXcj0kETPX97Nt6mb2gTmbPr7dEJdYet4an3nFgrpVmc4wxjW0Uszg1h0JS6NLTgKHBCvc1ItDIU+WdILejiEBqCUE/8zJX27Ng3cNQ2slzJhZ7SsTuNjLQUBAqBrpkVFcjratqksqaJqk14tDOHCwnK5ThTNf3b9k1S7bslmlFJ9U9AIlA4yZd8uA6+WBBXdCq0HfGRhsBKOFpQgQQgeAKwb7mReMMBc7Vp/F2Lju2gxWxM6i8+Vmt/PXRMs8T3z5C/V+7GAEgTwAigAikgBBcaF6uCeK5ZxrpOnr3QjnzgGLJzQ7OvdXe/9+fKIuYvyAAHGUE4HGenvQTASaGUxDzMF9rXh4N4rlrfuKn36uWhvXBOu8X59QEWQCuRgDSF0QgddGIo4EM+auhGIrygzXCG9k/J6j15D/GLuFxQQQg9UYD6uOdaGxN0M7942/q4wr/0BYsWBbIRFuLjP2elUCIAKSuECwxL0cYC9RD3rNzpuRkhR8JaKTP654sly++b71GV5d76ma0B1+PvNyzj4cw1z5DAxhNJDQ0ZFEEKS8Ebw6fsvwC888bg3LOx+1RFPbv9Q2hVIwallqzlvXolCm7DcmVUQNyZXi/HOnSPnF9mlVrG+XDhfXy0aI6eferOimtCK320eWlh44t2GQp66htcqT/ZlmyeEVgJjOON3XjK54QYHVQmmCE4AF98P1+nr3MKODZS7tLVosl+7rD+PTbSh1DTWzRNVN22CpH+vbIsv7du1uW9XuF+Rlh9x/onoK1VU1SWt4oP65plCWr1lvhrj83o4xVDrH+B/fOlhlTu25yjm9+Wivn3xuIjvUVRgD+wlOROILcjjISSB9O1fZLO61+PsnzD22/SeOqXPV4mWusoaWmIV+6JnzyGg1EV5jbTgryMqS6NvTAahayWNCIpc/NrpZDd/11ops9hubJmMG58j9/5wrQPBSX8TjAz88GRZAemJ6fFRXS2E9+PcdxQ3JljzDhIz76pt6aLI4H7fVro689fH2NVQA2oPMD4Tp/Fx3RQfJyfDs6XWDsWDsfBQAikIZC8KN5OdSY75ay6ETwHw8NnxbhiVn+i7/z4+r1Mnv+pj3+zbtkykn7FPnx9pcZO9DUgXKeBEAE0lsI3jUv5/rtvM6dWGz58VtSVdssb3/hT/eKRggNx6R9i2RYP1/tG2i2RwALeQIAEQAVgtvNy31+OR/N5nXUboVh33v9kxprVZAf0ThBlTWbnpuGvrj6pI5SmOcbt9Cldt4JAEQAfuYMCYWeblM0lPSlx0TOjvnSXP+GYlBxUiEIR4+OmXLa/sV+OE3NM3EV1R0QAWg5GtCZVp0oXtmW57HPiHyrwQxHWXWTzF3k73DMb30eWaQOG1vQ1pPEXxo7kYlgQAQgkhCsMC8Ha6e2rc5hm16RVym/ZXrZTT6PyPzB/DqpiZA1TKOghpvnaCV0w8JB5h5XUtMBEQAnIVCX0Bltdfzy6vCtvC6/fHxWte/Lr7quWZ75X+TzXFvRJiqmB9XQ0Iup4YAIgBch0EniO9ri2C/NrQkbLO5fb1ZZu3eDwF0vVYbdYfzul3VS0jYicJG5p69QswERgGjQZaOzWvugy9Y0ynl3rbV2+24YGdwys0JuejY4y9l149nJN5XI+1/XWSMYtdc+qZU/P9AmISQ0j8R1VGfwCrGD4GeGT1neQ0I5irdoi+N3KGhnTQYHGd30pmEv1E3UBmj+iDF2GHFoRUgviQikkhCMtkcEeZRGoNDk8KPs8OGACHgGdxD8CtOIzDEvkymJQKG+tMMRAEAEIFFC8JB5uZmSCAwXaN4IigEQAUhow2KMhsX/PGQE4CaKARABSPRoQFNkHW7se0rDt+gkPq47QAQgaUKgk42arL6G0vAdmhfiEDtPBAAiAEkTgk/MyyRKwlfoLrrD7PwQAIgAJF0IHhM2IPmJc809eYdiAEQAWpOLjL1KMbQ599v5IAAQAWjV0YCuRT/SGEHJ2g4N9nc6xQCJhB3DEBXDpywfYjdGhZRGq6J5H0bY4b/BZ7BjGNJpRPCFeTmBkmhVrARACAAgAuAXIdCUhVdSEq3GGabM36cYABEAP/EXYy9SDEnnDjvfAwAiAL4aDWjM52ONLaA0koYuAz2XYoBkwsQwxMXwKcsHmZcPjRVTGgllqYRCQ6+iKPwPE8OQziOC+faIABJHnYQmghEAQAQgEEIw07xcQkkkjFPsvA4AiAAEhquMzaAY4maaEYB/UQyACEDQRgPqFD3F2F2URkxo6G5dCnotRQGtCRPDkHCGT1l+vIQyk3WkNDzxubFJRgDmUhTBhETziABsKgSdzcv5xv5grBslEpYPjE039oi95BYQAUQAEUg5Mcg2L7vaNtBYJ9l0Oak2gOU+Om1NolOXpN8tNfalsVmm4V9KDUEEEAFEAAAQgTaDiWEAgDQGEQAAQAQAAAARAAAARAAAABABAABABAAAABEAAABEAAAAEAEAAEAEAAAAEQAAAEQAAAAQAQAAQAQAAAARAAAARAAAABABAABABAAAABEAAABEAAAAEAEAAEAEAAAAEQAAAEQAAAAQAQAAQAQAAAARAAAARAAAABABAABABAAAABEAAABEAAAAEAEAAEAEAAAAEUhdCoz1pRgAIFqyUuQ6so0NMLa9sSG27WDsMmMPptj9GtDiGvW1n7GZxiZSpQEg3UTgM2ODbCFI9ZHOK8b2oNoCACLwC9un0f3CfQcANCoAAIAIAEDroi7XLIohteCGAkBLiiS0AGGwhObbNrxuY2y0sU8oIkQAAFKTscbeoRjSB9xBAEDHEBEAAABEAAAAEAEAAEAEAAAgxWESKDXRJX0aV6i3hILLVRtbbOwDY0uTcLwtjO0koRhGhfbfVtvH+ihJx9zQiellbEtjHY3lGetg1+saY+uMrTX2g7HlxppiOEYfCcVn6m1bD/sYmXbZ1tnl+6OxecbetI+VaLoZ29lYf/talTL7uBo6ZZGx5hSpv1q2wyUUDUDvr+5PqDe2yr7Oj41VJviYWq66MmqgfY+LjbW3j7veWKldj7419rWxL+x7jwgEGH2A3zDW0+EzWuEOCHOz7za2b4TvzDZ2lMNvHmbseof3+8Z4Pfqw3GzscGObOXzuQ2M3GnsszvLTteSnGJsk7qE7FkgokN/tdsMcK52NjTc2zn5gh9j30QsN9kOs93SusQeMfRPmc9rQn2aL2ki7wY8GbYg1xtNfjb0XZxnn2HVpsrFdXT671L6nt9jC4Mb1dl1sSZ7L916yG0YvlNudEa/oXoRzjB1prJPD57RRft2uT8/HIX45dtmeatelaNBOxn+N3WfshUC3hM3NzYE2uwJEshMdLv0al+9WOFSMZx2+95ZLkZ/oclwn3nL5bjSmD3OXGKvNMXavLNpjrjH2+yiPpSJ9lrFZxhoTeP2RhHpiAo9xg92rjYW9jC2M4ZjaOF1oLMPl92ck8DojmVfB1x73nfZILdpjvGuPQKNFOy7zE3CNi4LejqarCIywexORvqeNzW8dKlAqiECz/RBsFsWDk2f36OM97lVRHPOmJDVQg1pBBNTuibJxyrBHEU1xHvdfLgLkFxEYYrsq4zlOqT1y88po25WWiGv8d9BFIB0nhrUhe8jlATnX2ItpUBbq/3xOwofhDjd01tHDcQk47p+NndGG1129oQfXCpwSxehHBeBeYxd76Ml7Ga3d6PP6N8J2mfWL83c62XWzj4fPdpVQ7o32CbqGeUFvBNJRBNQNNNjh/enGbk2j8tBe0UUePneXJDaXgTZQ27TRNX9uj/Zai7/bIurGHyU0x5Io1I22r0/rXXe74U5UY9zZHt24ief54jwPGC2Bj6OUbhPD+kCc7fD+K/YoIOhoA7fSFvkeHsR+mt3Ir4rw/kHiPL+iqL9/joQmA3WuYRf5ZaVQpJGFNo6HtkH5xPvgblgtUmNfa5HL53X10iHiPBk/xIObTI+rCw+WSWj1ylBjm3sQ2yHiv5VDd9p10wmduP/KLue+dofFqS7vbuxAe3QbiSNcjqmryXSeQRcR1BrLldBqLBWOHWzxSqmRQDrNCegwcLk4+8c7eSw2P84JqA/5SVvo8jf6ji4tvEzcJ1UvdugoLHL4nq4UuTBMT1fP4U/2+07n7OYK8DonUGXsO7uBV/tSQstUw133aQ7Hc5sT0GWamS1G0+Ps0YWbj96Jl12+/6B9L1uO5A92qdfNEUYDg+xGs6Ud5fJbp0T4XjgbG+Fax7kcQ68n3JxcL7scm2N8/jZz+e4zLZ6dcAy2R2xv22Ic+HY0XUQgwx56RvrcMo/+RD+LgNtxT3M5bqTe8eEu33Pzd//e5fvT4hABvW8HuAzvs+0HV3viF0hoaeTgOESgr0MDU+XwvQUOx9ze5Zj3upRRP3sEFun7D0RRt/u6nMuwBPQ9n3f4fb2OAS7fv9elY7Glg+vT6dq2jvI68hGB4IjAJQ6fKZPo1jIHVQRUCD91OXb3MN973eHz//FYXv91+I034xCBZPhjYxUBEecVN+sl8gS80zWutV0/XuYTIv3GSh+JQC+XUekfPfxGe7tcol0VuGOcHZqU9Kikw8TwPrY7JBx1tg/xszQoh2bb7+9Eyw1J2sPew8Wv6wWnnuwoiX8ljF9wisOvLqStIrznNC+i7o8KD8ee4dCJUN97b5+U0UQHv/56D6MesUcLjzu8PzrC35d6qKeTU6g+eiLVRUC3gj8W4TqbbP/n22l0v19xeb/lzt/xDg9Eo93Dj7dx1EnVLVKkfL9zeb9DhDq6hctcgRd0/mOhw/sDfVJG4x3em2338L0wy+G9bSP8XecaFrm4d7SjpAscTpLod4sHklRfHfRnB6E72XbrpBO6KUdXPEQKDdDSl+rkO9ffuTpBnQ11EfyYAuVb6vJ+OLeOW7gCnVwd4PH42S5l7AecXK+6eOMmj7+zVYzXqmE13JaAa7iQ+43dIaGQEI9IaN9QXSo2CqkuAu0chtgzJP3YsPIi0oqclqtPnHqouvzznASdV6cUKV83t024NfF9Xb5zUYqVcX+H9wZJ5J3c0eAUDuU2CbmID/TwO7o89FDbdO5QV99pvKKP06GRTHV0AujgNL32iih6qu1b6ZzyUqRsY9mA1lqNc64PykdHKjmtdBynjtDRElrwEA0dbO+BRsV9VaIPOIcI+PC6dWJp7zS89mgmvXIEUuUZzPfBtRb6pMw1bMgECe1viSUktbYbujLtD1RA/6PDtwaH3oLGENk5RSu6U4/G6yihysc96FShqZWOU+PzUWhrl6m2C9dJaG7hCtlo45dHdLXX3faoItCk+pyATuY8ZotBpN6RfkZDHCyM4nfLfd7jcqq4Tlv1f2rxf7cokDqaqk3AeS2U9GWNy/u6AmtlAo4z2wfX2mh3LCJ1lHS+6tVWKNOWn/2LscsltET6dxLagLitx+/rslLN0bEYEfAvT0kofMHfI7yvgadesEcEpVFU5kj08nFZ6KSck/+9ZUVe4vJ7GvL4S4F4+MHlfe1tPu2zjkQ86DLaSP70FeIeoyqZo4d3bFM30XYS2jNwgsvoWZManWlsalArYLrMCWjkUKfYLdvYvVqvFdxJLDqJe2CstuK3Lu9/1OL/bsGx9hWIl7ku7+/Xyufjtms93rXzTnVqqI+eHe3c6Oo3DdCnu5gbHD47IcgVMJ0mhnUSZ47D+zrZ4zXZidvOwz18eP0qcKc4vK/D9JbpEN+X0CRaJKbaIymIHXWBOMUVOi4K10QiKHN5P94lnK+7eCYu99n90edC401d4PCZAUGugOkkAuq71h3CTv58DWZ2gIff+tblfc1Z6ret55eJ8+YvjaBYE+YBeMbhO7qPQPM09xaIh4cc3lP33WsSSrzeWiLg5O48Ms725RlxXnBwqt3oJstVrZPA42J4PuemajuabktEtfE+3eUzM8Tdr/+py/u72z0aP5Sv9tQ1xs/FLp+7PcLfb3D5ng7hNeb7leK8i1PpZDciGhb5XwIbuEucV+/0skexd9rl7USB3ZHR3a5vxXAu6g763uH98eK8SVCXFetmLJ0wfSLM++XiHh9IE79oPC/Njua22m5b+/PaGTnc5bPF9nMwy75GTSClLs1cD/XWKbDdmiBXvgw7EmdwLyAjw+kCTpLwO4M1L+hhLkNWrRxOS800/4BbPJZldoXTVTcbElMMFefQx049FH2od4vwnm5p11UKK+zj5diN8jhx34yl8Wn2d3hft817XQr3jS2Spfboq70tRDoZ2GcjYdSHsK+H37vJodHR4wxLcJWa6DL60TJdEuE9vR6n+EG6QTFSqJJLo3CF/GhfuyYBqrTrVpHdIA7YqBfdbP+9OsoyeMxDj/9rCe2cLbXvsTaUGnZkO/llf4l2usLtENZotQvs8/YygtdrXWSPUrJsoetrj2y7tOjl/8Xht8ZJ+JhD1bbI6iq1Evs4+sx0sM9/H5dn6E3Tju4Z2EY0TRPNd7NvttN33bbrT5PkJOcWFxFI9PEqPfTg9aFdmuDjqsDmexSBoISS7uvy3YkO3821RTzR9zcWkTwmQcdulMgbDo9KwrU+7nJdZyfpmT2bUNLBQyMuui3p0l7FSIf377B73UFGG+LjxD36pY4sJiR42Jsh/ols6Qfq7JHCogT/bixlrOkZ1yXg2O0k8qTpY5K4uEherzUZ8yo6sX9/kCteuzR+6NQv/ZrD+1m27zLSBJX6No+X4O52bbDP/xmPn9f0iWNtN1hbNlCpjLoPx4hzmORoiWVlkY4O/5yg4zutnNG9O7pqrz6B9cmpTRuR4Pul5XSIxBZ6AhHwgydMQptBnHa86lD6LIf3VUQOEvdldX5De/57GXs4yu8tsEdHN4rzummvDBJoiY621L/8xwTVq1iF9g6JvMEykce/165T7yfgWOq3d1qp9okkLhy07iPQHcYfBL8lTM85gY1xS2SuD2WRy2/o6g1duVEj0fsT9Ts6KXWzOE9WKxr+doaEJtxi8V3qpK1OshYkoOrow3at3XuN9jxW2NcxLs77k0pzAuHoavfIF8RQxhtCH0+Mszz2s8s5lnr9lERONh8OXYzxtN0xi3Z+STehXWmXmRM6ga35tt+yvxftdb1vj6CzUqUdTYXVQbs7vK2uC7e4Kzo52c/lM997HPJp46qrf3QHcndbPPLtSl1vm2ZO0jkJ9bMvtX2KsbiUCu2GeAu74usKHF3NoBNx2fYoT49bah9Hey6LxH3yOepbYJ+HDvu3tM+lwL7uevva1HW2yhaMhfY1e0WvK1JI6/oof0s83sPuDu9rWa53KAsnga2Nw33Y0+5Vq9B0scskz/49HZVV2XVqmS323yf4Xve3XUub2/c4277WDddUZtftlXYnZUkco8Vce5Soz+Vmdh3Ita3aLv+1dmdiiV2nYnHJ6PM52C5T3anccaPnp9Yu01q7XHVF1tcSIfNZkNvRwIsAAADETjuKAAAAEQAAAEQAAAAQAQAAQAQAAAARAAAARAAAABABAABABAAAABEAAABEAAAAEAEAAEAEAAAAEQAAAEQAAAAQAQAAQAQAAAARAAAARAAAABABAABABAAAABEAAABEAAAAEAEAAEAEAAAAEQAAAEQAAAAQAQAAQAQAAAARAAAARAAAABABAABABAAAABEAAABEAAAAEAEAAEAEAAAQAQAAQAQAAAARAAAARAAAABABAABABAAAABEAAABEAAAAEAEAAEAEAAAAEQAAAEQAAAAQAQAAQAQAAAARAAAARAAAABABAABABAAAABEAAABEAAAAEAEAAEAEAAAAEQAAAEQAAAAQAQAAQAQAAAARAAAARAAAABABAABABAAAABEAAABEAAAA3Ph/AQYAEHH8tpHbvJQAAAAASUVORK5CYII=;" vertex="1" parent="1">
          <mxGeometry x="830.4100000000001" y="-50" width="151.97" height="150" as="geometry" />
        </mxCell>
      </root>
    </mxGraphModel>
  </diagram>
</mxfile>
